<?xml version="1.0" encoding="UTF-8"?>
<svg version="1.1" xmlns="http://www.w3.org/2000/svg" width="1160" height="922">
<path d="M0 0 C382.8 0 765.6 0 1160 0 C1160 304.26 1160 608.52 1160 922 C777.2 922 394.4 922 0 922 C0 617.74 0 313.48 0 0 Z " fill="#000000" transform="translate(0,0)"/>
<path d="M0 0 C0.76828125 0.46535156 1.5365625 0.93070313 2.328125 1.41015625 C9.42018151 5.93315147 16.05280861 11.13776678 21 18 C21.53367187 18.63808594 22.06734375 19.27617187 22.6171875 19.93359375 C28.1991589 27.03683204 30.3086773 34.51191693 32.48022461 43.12109375 C33.00836972 45.17370202 33.00836972 45.17370202 34.1171875 47.734375 C35.52451133 52.94022776 35.33841845 58.13221357 35.3125 63.5 C35.30831055 64.66748779 35.30412109 65.83497559 35.29980469 67.0378418 C35.14055989 79.19889296 32.56513865 89.54163818 28.8359375 101.09375 C28.11734233 103.59204349 27.70819211 105.7973834 27.5 108.375 C27.00227418 111.98351222 25.96103672 114.11302605 24.03515625 117.1640625 C22.90063746 119.1762279 22.23992998 121.10601377 21.5625 123.3125 C19.51354682 129.79721883 16.30062237 135.63696895 13.0390625 141.58203125 C8.46491351 149.92534657 8.46491351 149.92534657 4.9375 158.75 C2.59549064 165.70380753 -1.51261883 171.43089726 -5.6796875 177.41015625 C-8.15344923 180.99772612 -10.22116218 184.23141417 -11.625 188.375 C-13.07764134 192.2046908 -13.79761866 192.79836283 -17 195 C-18.03291676 196.98320018 -19.0337499 198.98347806 -20 201 C-21 202 -22 203 -23 204 C-23.28746094 204.75539063 -23.57492187 205.51078125 -23.87109375 206.2890625 C-25.08373679 209.20108419 -26.55939179 211.33329079 -28.5 213.8125 C-29.1084375 214.60269531 -29.716875 215.39289063 -30.34375 216.20703125 C-30.8903125 216.79871094 -31.436875 217.39039063 -32 218 C-32.66 218 -33.32 218 -34 218 C-34.66 219.65 -35.32 221.3 -36 223 C-36.66 223 -37.32 223 -38 223 C-38.061875 223.721875 -38.12375 224.44375 -38.1875 225.1875 C-39.25399156 228.87920154 -41.26166807 230.33289636 -44 233 C-45.37765915 234.62621954 -46.73138632 236.27296671 -48.0625 237.9375 C-61.02086626 253.9010137 -74.87353488 268.92452084 -89.375 283.5 C-90.01155518 284.14122803 -90.64811035 284.78245605 -91.30395508 285.44311523 C-91.89200928 286.02907471 -92.48006348 286.61503418 -93.0859375 287.21875 C-93.6020459 287.73373047 -94.1181543 288.24871094 -94.64990234 288.77929688 C-96 290 -96 290 -98 291 C-95.85356611 308.71372809 -87.79265432 325.58153667 -75 338 C-74.44957031 338.57105469 -73.89914062 339.14210938 -73.33203125 339.73046875 C-68.13400882 344.72313721 -61.61240127 347.34721417 -55 350 C-54.14792969 350.34417969 -53.29585937 350.68835938 -52.41796875 351.04296875 C-33.79847844 357.28856156 -13.12900752 352.02922228 4 344 C4.9075 343.57460938 5.815 343.14921875 6.75 342.7109375 C10.48649682 340.89829172 14.07280007 339.03852604 17.5 336.6875 C20 335 20 335 22 335 C22 334.34 22 333.68 22 333 C23.98 332.34 25.96 331.68 28 331 C28 330.34 28 329.68 28 329 C29.79296875 327.4140625 29.79296875 327.4140625 32.1875 325.625 C33.00992188 325.00109375 33.83234375 324.3771875 34.6796875 323.734375 C35.44539063 323.16203125 36.21109375 322.5896875 37 322 C40.60530593 319.27599107 43.21555209 316.55257147 46 313 C46.66 312.67 47.32 312.34 48 312 C49.11634152 310.34948712 49.11634152 310.34948712 50.125 308.4375 C50.74375 307.303125 51.3625 306.16875 52 305 C52.66 305 53.32 305 54 305 C54.0825 304.484375 54.165 303.96875 54.25 303.4375 C55.32140225 299.95544268 57.13523605 297.12799115 59 294 C59.66 294 60.32 294 61 294 C61.2475 293.2575 61.495 292.515 61.75 291.75 C63.09147301 288.79875938 64.60905526 287.15185026 67 285 C66.34 287.97 65.68 290.94 65 294 C64.34 294 63.68 294 63 294 C62.72027344 294.72574219 62.44054687 295.45148438 62.15234375 296.19921875 C56.04599694 311.04074642 45.94912713 324.4204049 35 336 C33.89117511 337.30856702 32.78683332 338.62094901 31.6875 339.9375 C20.43249716 352.72727596 6.0890104 364.06344827 -9 372 C-9.66 372 -10.32 372 -11 372 C-11.33 372.99 -11.66 373.98 -12 375 C-14.35627796 376.11425502 -16.62225875 377.05148771 -19.0625 377.9375 C-20.45025648 378.46341565 -21.83699085 378.99203678 -23.22265625 379.5234375 C-23.88539551 379.77706055 -24.54813477 380.03068359 -25.23095703 380.29199219 C-27.23058044 381.09228309 -29.11168365 382.02792133 -31 383.0625 C-56.59476355 396.24270944 -89.6711998 397.96902406 -117.02734375 390.1328125 C-119.03868446 389.48199347 -121.02504888 388.75407225 -123 388 C-123 387.34 -123 386.68 -123 386 C-123.87011719 385.83564453 -123.87011719 385.83564453 -124.7578125 385.66796875 C-130.49835657 384.50280881 -135.72977747 383.27022253 -140 379 C-141.04285156 378.57203125 -142.08570313 378.1440625 -143.16015625 377.703125 C-147.37572149 375.96236378 -150.81291812 373.48689103 -154.4375 370.75 C-155.42145752 370.01692627 -155.42145752 370.01692627 -156.42529297 369.26904297 C-165.53712694 362.42104675 -173.54369395 354.86181731 -180.9375 346.1875 C-181.46601563 345.5680249 -181.99453125 344.9485498 -182.5390625 344.31030273 C-197 327.26291052 -197 327.26291052 -197 322 C-197.66 322 -198.32 322 -199 322 C-199.24234375 321.43152344 -199.4846875 320.86304688 -199.734375 320.27734375 C-200.06953125 319.50519531 -200.4046875 318.73304688 -200.75 317.9375 C-201.23726563 316.80634766 -201.23726563 316.80634766 -201.734375 315.65234375 C-203.02906862 312.84198127 -203.02906862 312.84198127 -204.953125 309.671875 C-207.06875357 306.01980323 -208.57310054 302.27648685 -210 298.3125 C-210.2563623 297.60826904 -210.51272461 296.90403809 -210.77685547 296.1784668 C-211.28900726 294.76466421 -211.7980428 293.34972825 -212.30371094 291.93359375 C-212.89463582 290.29259619 -213.51101111 288.66079847 -214.1328125 287.03125 C-219.69153643 271.79947106 -221.3777705 256.42482796 -221.375 240.3125 C-221.37681274 239.62595337 -221.37862549 238.93940674 -221.38049316 238.23205566 C-221.37803407 230.01426306 -220.63911299 223.19556497 -219 215 C-179.73 215 -140.46 215 -100 215 C-100 228 -100 228 -101 234 C-101.0800973 235.69433076 -101.11801274 237.39118533 -101.11352539 239.08740234 C-101.11344986 240.04794525 -101.11337433 241.00848816 -101.11329651 241.99813843 C-101.10555458 243.52659897 -101.10555458 243.52659897 -101.09765625 245.0859375 C-101.0962413 246.14285797 -101.09482635 247.19977844 -101.09336853 248.28872681 C-101.0877894 251.65084716 -101.07524069 255.01289991 -101.0625 258.375 C-101.05748231 260.66015529 -101.05291987 262.94531162 -101.04882812 265.23046875 C-101.03782679 270.8203354 -101.02110944 276.41016287 -101 282 C-100.34 282 -99.68 282 -99 282 C-98.34 280.35 -97.68 278.7 -97 277 C-96.34 277 -95.68 277 -95 277 C-94.814375 276.34 -94.62875 275.68 -94.4375 275 C-92.7503098 271.4789074 -90.54885568 269.12418226 -87.94140625 266.25 C-83.94459161 261.61787679 -80.42443025 256.52801111 -77.421875 251.19921875 C-76.95265625 250.47347656 -76.4834375 249.74773437 -76 249 C-75.34 249 -74.68 249 -74 249 C-73.74347656 248.29101562 -73.48695313 247.58203125 -73.22265625 246.8515625 C-71.90302751 243.77383412 -70.28052186 241.16839013 -68.4375 238.375 C-66.56250053 235.52936671 -65.0790587 233.23717611 -64 230 C-63.34 230 -62.68 230 -62 230 C-61.6596875 229.0409375 -61.6596875 229.0409375 -61.3125 228.0625 C-58.48640193 221.46827117 -54.6613157 215.38005423 -50.85205078 209.31591797 C-46.9303202 203.0684942 -43.27470996 197.0827089 -40.82421875 190.08984375 C-39.92876636 187.8193839 -38.78707919 185.96780535 -37.4375 183.9375 C-34.74630446 179.86344398 -33.36015746 175.65945831 -32 171 C-31.67 170.01 -31.34 169.02 -31 168 C-30.34 168 -29.68 168 -29 168 C-28.87882813 167.28972656 -28.75765625 166.57945312 -28.6328125 165.84765625 C-28.38144531 164.46900391 -28.38144531 164.46900391 -28.125 163.0625 C-27.96257812 162.14597656 -27.80015625 161.22945312 -27.6328125 160.28515625 C-27.42398438 159.53105469 -27.21515625 158.77695312 -27 158 C-26.34 157.67 -25.68 157.34 -25 157 C-24.10156921 154.48261472 -23.30625914 152.00041522 -22.5625 149.4375 C-22.12027832 147.96170241 -21.67628975 146.48643302 -21.23046875 145.01171875 C-21.01825684 144.30837402 -20.80604492 143.6050293 -20.58740234 142.88037109 C-19.93690603 140.79802586 -19.190333 138.77323374 -18.375 136.75 C-14.14359239 125.20979742 -12.68747861 113.1115486 -11 101 C-10.34 101 -9.68 101 -9 101 C-8.94984792 95.45395158 -8.91393209 89.90804065 -8.89013672 84.36181641 C-8.88019696 82.48256119 -8.86664046 80.60332093 -8.84912109 78.72412109 C-8.71457055 63.89981725 -9.18710251 49.58270305 -13.125 35.1875 C-15 28.31914894 -15 28.31914894 -15 25 C-15.66 25 -16.32 25 -17 25 C-17.4125 23.9275 -17.825 22.855 -18.25 21.75 C-19.67483678 18.43425834 -21.26875611 16.40992108 -24 14 C-24.7425 13.195625 -25.485 12.39125 -26.25 11.5625 C-32.57497435 5.6687739 -38.15359379 2.82020287 -46.75 2.8125 C-47.80574219 2.79413086 -47.80574219 2.79413086 -48.8828125 2.77539062 C-53.31077388 2.76304501 -56.82608462 3.33962171 -61 5 C-61 5.66 -61 6.32 -61 7 C-62.19625 7.556875 -63.3925 8.11375 -64.625 8.6875 C-71.07868219 11.93141433 -75.57466626 16.40325438 -80 22 C-80.33 21.01 -80.66 20.02 -81 19 C-60.03929541 -4.85994223 -30.10924989 -18.32511243 0 0 Z " fill="#FCFCFC" transform="translate(676,169)"/>
<path d="M0 0 C0.94622726 -0.00570007 1.89245453 -0.01140015 2.86735535 -0.01727295 C4.86850887 -0.02668884 6.86967767 -0.03324331 8.87084961 -0.03710938 C11.87057211 -0.0467231 14.86958122 -0.07774086 17.86914062 -0.109375 C29.9282982 -0.17370048 41.29325681 0.75367735 53.10546875 3.203125 C54.38778184 7.10062526 53.46818333 9.24032534 51.93359375 13.00878906 C50.57624651 16.60543911 49.87427632 20.31982327 49.10546875 24.078125 C47.88965951 29.80455156 46.52101439 35.37584423 44.7421875 40.95703125 C44.07066664 43.32589318 43.67149681 45.6458011 43.29296875 48.078125 C42.20780664 54.59845251 40.19974569 60.82734069 38.2253418 67.12255859 C36.87143142 71.47286969 35.70459102 75.66902685 35.10546875 80.203125 C33.08471309 80.23047357 31.06384654 80.2496767 29.04296875 80.265625 C27.91761719 80.27722656 26.79226563 80.28882813 25.6328125 80.30078125 C22.10546875 80.203125 22.10546875 80.203125 18.84375 79.70703125 C13.99517253 79.05346125 9.24152146 79.05804533 4.35546875 79.078125 C3.42992187 79.07425781 2.504375 79.07039063 1.55078125 79.06640625 C-9.32505069 79.08155365 -19.31728448 80.26228818 -29.83203125 83.078125 C-30.84587891 83.33464844 -31.85972656 83.59117187 -32.90429688 83.85546875 C-33.87947266 84.11199219 -34.85464844 84.36851562 -35.859375 84.6328125 C-37.16829712 84.97675049 -37.16829712 84.97675049 -38.50366211 85.32763672 C-41.06621346 86.26599158 -42.77045859 87.51356017 -44.89453125 89.203125 C-46.60167707 89.88598333 -48.33398579 90.50805534 -50.08203125 91.078125 C-54.75997595 92.69596647 -58.87901803 94.70556553 -63.1171875 97.25 C-64.89453125 98.203125 -64.89453125 98.203125 -66.89453125 98.203125 C-66.89453125 98.863125 -66.89453125 99.523125 -66.89453125 100.203125 C-67.98765625 100.80125 -69.08078125 101.399375 -70.20703125 102.015625 C-72.83473288 103.52168245 -74.88215494 104.91633374 -76.89453125 107.203125 C-79.81678264 110.20886928 -82.81895688 113.00172278 -86.01953125 115.703125 C-89.02759061 118.29277009 -91.02197949 120.66608278 -92.89453125 124.203125 C-93.88453125 124.698125 -93.88453125 124.698125 -94.89453125 125.203125 C-95.38953125 126.688125 -95.38953125 126.688125 -95.89453125 128.203125 C-96.55453125 128.203125 -97.21453125 128.203125 -97.89453125 128.203125 C-98.27351563 128.96689453 -98.27351563 128.96689453 -98.66015625 129.74609375 C-99.63785693 131.69221315 -100.63071184 133.63071845 -101.62890625 135.56640625 C-120.99787125 173.34070616 -124.8456757 211.74386132 -112.14208984 252.62451172 C-108.70366955 263.18490504 -104.67844178 273.32359551 -99.140625 282.96484375 C-98.20218776 284.65050062 -97.33481583 286.3760118 -96.50390625 288.1171875 C-94.29775196 292.3474348 -91.43709435 295.93956983 -88.5390625 299.71484375 C-86.89453125 302.203125 -86.89453125 302.203125 -86.89453125 305.203125 C-86.29640625 305.409375 -85.69828125 305.615625 -85.08203125 305.828125 C-82.08217066 307.71375166 -81.4415602 310.04718595 -79.89453125 313.203125 C-77.54040359 315.80727214 -77.54040359 315.80727214 -74.89453125 318.203125 C-72.07607051 320.94931752 -69.44705845 323.7244199 -66.95703125 326.765625 C-64.28975539 329.93473368 -61.42275211 332.00778758 -57.89453125 334.203125 C-56.87511935 335.18332875 -55.87206769 336.18115508 -54.89453125 337.203125 C-53.81171875 337.9765625 -53.81171875 337.9765625 -52.70703125 338.765625 C-52.10890625 339.24 -51.51078125 339.714375 -50.89453125 340.203125 C-50.89453125 340.863125 -50.89453125 341.523125 -50.89453125 342.203125 C-50.31703125 342.30625 -49.73953125 342.409375 -49.14453125 342.515625 C-46.55161657 343.30790448 -45.04657351 344.57278995 -42.89453125 346.203125 C-42.04890625 346.533125 -41.20328125 346.863125 -40.33203125 347.203125 C-37.86388924 348.21569608 -36.61863942 349.20678922 -34.89453125 351.203125 C-40.55225784 350.70683319 -44.67421154 349.57599759 -49.89453125 347.203125 C-51.15265625 346.8525 -52.41078125 346.501875 -53.70703125 346.140625 C-56.89453125 345.203125 -56.89453125 345.203125 -58.89453125 343.203125 C-60.45725022 342.50889553 -62.044622 341.86922713 -63.64453125 341.265625 C-78.80887277 335.37444196 -78.80887277 335.37444196 -80.89453125 331.203125 C-82.27877629 330.33654184 -83.70241564 329.53204737 -85.14453125 328.765625 C-85.95277344 328.32734375 -86.76101563 327.8890625 -87.59375 327.4375 C-88.73263672 326.82648438 -88.73263672 326.82648438 -89.89453125 326.203125 C-92.95703125 324.515625 -92.95703125 324.515625 -94.89453125 323.203125 C-94.89453125 322.543125 -94.89453125 321.883125 -94.89453125 321.203125 C-95.47203125 321.120625 -96.04953125 321.038125 -96.64453125 320.953125 C-99.56882888 319.97835912 -100.7809021 318.44108527 -102.89453125 316.203125 C-103.88453125 315.39875 -104.87453125 314.594375 -105.89453125 313.765625 C-108.65914477 311.40418428 -110.64501758 309.03315833 -112.89453125 306.203125 C-114.5409309 304.84484529 -116.20748932 303.51058249 -117.89453125 302.203125 C-120.53087607 299.72185929 -122.88259452 297.22103009 -124.89453125 294.203125 C-124.89453125 293.543125 -124.89453125 292.883125 -124.89453125 292.203125 C-125.88453125 291.873125 -126.87453125 291.543125 -127.89453125 291.203125 C-129.24862445 289.21712163 -130.57910749 287.21494957 -131.89453125 285.203125 C-132.67828125 284.48125 -133.46203125 283.759375 -134.26953125 283.015625 C-137.31527766 279.75232528 -139.09930843 276.44000191 -141.1484375 272.49609375 C-142.44097689 270.05848592 -143.76840989 267.68841907 -145.171875 265.31640625 C-149.16134707 258.53543848 -152.71059094 252.35234801 -154.26171875 244.53515625 C-154.80252901 242.10375858 -154.80252901 242.10375858 -156.33984375 239.8671875 C-158.22852309 236.63080733 -159.0609146 233.37941864 -159.89453125 229.765625 C-160.14662354 228.70891602 -160.14662354 228.70891602 -160.40380859 227.63085938 C-160.91008882 225.49034698 -161.40291256 223.34704496 -161.89453125 221.203125 C-162.17554688 220.01589844 -162.4565625 218.82867187 -162.74609375 217.60546875 C-169.37741805 188.43434014 -168.42060885 159.77506481 -159.89453125 131.203125 C-159.41431117 129.56280803 -158.93514892 127.92218101 -158.45703125 126.28125 C-157.28078488 122.2518142 -156.09135625 118.22649414 -154.89453125 114.203125 C-154.23453125 114.203125 -153.57453125 114.203125 -152.89453125 114.203125 C-152.79978516 113.22085938 -152.79978516 113.22085938 -152.703125 112.21875 C-151.75822505 105.17675877 -149.50173758 100.16854087 -145.74609375 94.171875 C-144.01950138 91.40349906 -142.51102278 88.60278452 -141.01953125 85.703125 C-137.6031948 79.38835417 -133.32465004 73.83463194 -128.89453125 68.203125 C-128.17523438 67.27757812 -127.4559375 66.35203125 -126.71484375 65.3984375 C-121.81845861 59.17171376 -116.65861845 53.78904582 -110.6015625 48.6953125 C-109.00927815 47.30343007 -107.54391591 45.85469483 -106.08203125 44.328125 C-103.89453125 42.203125 -103.89453125 42.203125 -101.89453125 42.203125 C-101.89453125 41.543125 -101.89453125 40.883125 -101.89453125 40.203125 C-98.95763566 37.71195369 -95.75707436 35.57724969 -92.59228516 33.38574219 C-90.90296397 32.20899905 -89.23305261 31.00787445 -87.5625 29.8046875 C-67.56083668 15.67051548 -42.42365328 4.6560372 -17.89453125 2.203125 C-17.56453125 1.873125 -17.23453125 1.543125 -16.89453125 1.203125 C-11.2584673 0.15059859 -5.7220754 0.0272709 0 0 Z " fill="#D5D5D4" transform="translate(564.89453125,205.796875)"/>
<path d="M0 0 C0.76828125 0.46535156 1.5365625 0.93070313 2.328125 1.41015625 C9.42018151 5.93315147 16.05280861 11.13776678 21 18 C21.53367187 18.63808594 22.06734375 19.27617187 22.6171875 19.93359375 C28.1991589 27.03683204 30.3086773 34.51191693 32.48022461 43.12109375 C33.00836972 45.17370202 33.00836972 45.17370202 34.1171875 47.734375 C35.52451133 52.94022776 35.33841845 58.13221357 35.3125 63.5 C35.30831055 64.66748779 35.30412109 65.83497559 35.29980469 67.0378418 C35.14055989 79.19889296 32.56513865 89.54163818 28.8359375 101.09375 C28.11734233 103.59204349 27.70819211 105.7973834 27.5 108.375 C27.00227418 111.98351222 25.96103672 114.11302605 24.03515625 117.1640625 C22.90063746 119.1762279 22.23992998 121.10601377 21.5625 123.3125 C19.51354682 129.79721883 16.30062237 135.63696895 13.0390625 141.58203125 C8.46491351 149.92534657 8.46491351 149.92534657 4.9375 158.75 C2.59549064 165.70380753 -1.51261883 171.43089726 -5.6796875 177.41015625 C-8.15344923 180.99772612 -10.22116218 184.23141417 -11.625 188.375 C-13.07764134 192.2046908 -13.79761866 192.79836283 -17 195 C-18.03291676 196.98320018 -19.0337499 198.98347806 -20 201 C-21 202 -22 203 -23 204 C-23.28746094 204.75539063 -23.57492187 205.51078125 -23.87109375 206.2890625 C-25.08373679 209.20108419 -26.55939179 211.33329079 -28.5 213.8125 C-29.1084375 214.60269531 -29.716875 215.39289063 -30.34375 216.20703125 C-30.8903125 216.79871094 -31.436875 217.39039063 -32 218 C-32.66 218 -33.32 218 -34 218 C-34.66 219.65 -35.32 221.3 -36 223 C-36.66 223 -37.32 223 -38 223 C-38.061875 223.721875 -38.12375 224.44375 -38.1875 225.1875 C-39.25399156 228.87920154 -41.26166807 230.33289636 -44 233 C-45.37765915 234.62621954 -46.73138632 236.27296671 -48.0625 237.9375 C-61.02086626 253.9010137 -74.87353488 268.92452084 -89.375 283.5 C-90.32983276 284.46184204 -90.32983276 284.46184204 -91.30395508 285.44311523 C-91.89200928 286.02907471 -92.48006348 286.61503418 -93.0859375 287.21875 C-93.6020459 287.73373047 -94.1181543 288.24871094 -94.64990234 288.77929688 C-96 290 -96 290 -98 291 C-99.13350534 293.01669827 -99.13350534 293.01669827 -100 295 C-100.66 295 -101.32 295 -102 295 C-102.825 295.825 -103.65 296.65 -104.5 297.5 C-105.325 298.325 -106.15 299.15 -107 300 C-107.66 300 -108.32 300 -109 300 C-109 300.66 -109 301.32 -109 302 C-110.84375 303.70703125 -110.84375 303.70703125 -113.5 305.8125 C-114.49257813 306.60398437 -115.48515625 307.39546875 -116.5078125 308.2109375 C-117.06114258 308.65018555 -117.61447266 309.08943359 -118.18457031 309.54199219 C-120.18030443 311.14480608 -122.14967207 312.77674669 -124.1171875 314.4140625 C-125.17389648 315.28840942 -125.17389648 315.28840942 -126.25195312 316.18041992 C-127.64733827 317.33527122 -129.03937877 318.49417798 -130.42773438 319.6574707 C-133.81185642 322.43914189 -136.74064885 324.69259299 -141 326 C-135.79395435 319.63109192 -135.79395435 319.63109192 -132.5625 317.0625 C-129.67093177 314.7351402 -127.47876154 312.14626355 -125.078125 309.328125 C-122.69892754 306.6627083 -120.17963953 304.18505262 -117.625 301.6875 C-106.98819214 291.90152065 -106.98819214 291.90152065 -102 279 C-101.505 280.485 -101.505 280.485 -101 282 C-100.34 282 -99.68 282 -99 282 C-98.34 280.35 -97.68 278.7 -97 277 C-96.34 277 -95.68 277 -95 277 C-94.814375 276.34 -94.62875 275.68 -94.4375 275 C-92.7503098 271.4789074 -90.54885568 269.12418226 -87.94140625 266.25 C-83.94459161 261.61787679 -80.42443025 256.52801111 -77.421875 251.19921875 C-76.95265625 250.47347656 -76.4834375 249.74773437 -76 249 C-75.34 249 -74.68 249 -74 249 C-73.74347656 248.29101562 -73.48695313 247.58203125 -73.22265625 246.8515625 C-71.90302751 243.77383412 -70.28052186 241.16839013 -68.4375 238.375 C-66.56250053 235.52936671 -65.0790587 233.23717611 -64 230 C-63.34 230 -62.68 230 -62 230 C-61.773125 229.360625 -61.54625 228.72125 -61.3125 228.0625 C-58.48640193 221.46827117 -54.6613157 215.38005423 -50.85205078 209.31591797 C-46.9303202 203.0684942 -43.27470996 197.0827089 -40.82421875 190.08984375 C-39.92876636 187.8193839 -38.78707919 185.96780535 -37.4375 183.9375 C-34.74630446 179.86344398 -33.36015746 175.65945831 -32 171 C-31.67 170.01 -31.34 169.02 -31 168 C-30.34 168 -29.68 168 -29 168 C-28.81824219 166.93458984 -28.81824219 166.93458984 -28.6328125 165.84765625 C-28.46523438 164.92855469 -28.29765625 164.00945312 -28.125 163.0625 C-27.96257812 162.14597656 -27.80015625 161.22945312 -27.6328125 160.28515625 C-27.42398438 159.53105469 -27.21515625 158.77695312 -27 158 C-26.34 157.67 -25.68 157.34 -25 157 C-24.10156921 154.48261472 -23.30625914 152.00041522 -22.5625 149.4375 C-22.12027832 147.96170241 -21.67628975 146.48643302 -21.23046875 145.01171875 C-21.01825684 144.30837402 -20.80604492 143.6050293 -20.58740234 142.88037109 C-19.93690603 140.79802586 -19.190333 138.77323374 -18.375 136.75 C-14.14359239 125.20979742 -12.68747861 113.1115486 -11 101 C-10.34 101 -9.68 101 -9 101 C-8.94984792 95.45395158 -8.91393209 89.90804065 -8.89013672 84.36181641 C-8.88019696 82.48256119 -8.86664046 80.60332093 -8.84912109 78.72412109 C-8.71457055 63.89981725 -9.18710251 49.58270305 -13.125 35.1875 C-15 28.31914894 -15 28.31914894 -15 25 C-15.66 25 -16.32 25 -17 25 C-17.4125 23.9275 -17.825 22.855 -18.25 21.75 C-19.67483678 18.43425834 -21.26875611 16.40992108 -24 14 C-24.7425 13.195625 -25.485 12.39125 -26.25 11.5625 C-32.57497435 5.6687739 -38.15359379 2.82020287 -46.75 2.8125 C-47.80574219 2.79413086 -47.80574219 2.79413086 -48.8828125 2.77539062 C-53.31077388 2.76304501 -56.82608462 3.33962171 -61 5 C-61 5.66 -61 6.32 -61 7 C-62.19625 7.556875 -63.3925 8.11375 -64.625 8.6875 C-71.07868219 11.93141433 -75.57466626 16.40325438 -80 22 C-80.495 20.515 -80.495 20.515 -81 19 C-60.03929541 -4.85994223 -30.10924989 -18.32511243 0 0 Z " fill="#C0C0C0" transform="translate(676,169)"/>
<path d="M0 0 C0.78451538 -0.00167175 1.56903076 -0.00334351 2.37731934 -0.00506592 C15.2715975 -0.00671691 27.43113517 0.66645716 39.89453125 4.34375 C43.4568666 5.32413173 46.51043312 5.40008436 50.1875 5.25 C50.1875 5.91 50.1875 6.57 50.1875 7.25 C48.16674434 7.27734857 46.14587779 7.2965517 44.125 7.3125 C42.99964844 7.32410156 41.87429688 7.33570313 40.71484375 7.34765625 C37.1875 7.25 37.1875 7.25 33.92578125 6.75390625 C29.07720378 6.10033625 24.32355271 6.10492033 19.4375 6.125 C18.51195312 6.12113281 17.58640625 6.11726563 16.6328125 6.11328125 C5.75698056 6.12842865 -4.23525323 7.30916318 -14.75 10.125 C-15.76384766 10.38152344 -16.77769531 10.63804687 -17.82226562 10.90234375 C-18.79744141 11.15886719 -19.77261719 11.41539062 -20.77734375 11.6796875 C-21.6499585 11.90897949 -22.52257324 12.13827148 -23.42163086 12.37451172 C-25.98418221 13.31286658 -27.68842734 14.56043517 -29.8125 16.25 C-31.51964582 16.93285833 -33.25195454 17.55493034 -35 18.125 C-39.6779447 19.74284147 -43.79698678 21.75244053 -48.03515625 24.296875 C-49.8125 25.25 -49.8125 25.25 -51.8125 25.25 C-51.8125 25.91 -51.8125 26.57 -51.8125 27.25 C-53.4521875 28.1471875 -53.4521875 28.1471875 -55.125 29.0625 C-57.75270163 30.56855745 -59.80012369 31.96320874 -61.8125 34.25 C-64.73475139 37.25574428 -67.73692563 40.04859778 -70.9375 42.75 C-73.94555936 45.33964509 -75.93994824 47.71295778 -77.8125 51.25 C-78.8025 51.745 -78.8025 51.745 -79.8125 52.25 C-80.1425 53.24 -80.4725 54.23 -80.8125 55.25 C-81.4725 55.25 -82.1325 55.25 -82.8125 55.25 C-83.19148438 56.01376953 -83.19148438 56.01376953 -83.578125 56.79296875 C-84.55582568 58.73908815 -85.54868059 60.67759345 -86.546875 62.61328125 C-105.91584 100.38758116 -109.76364445 138.79073632 -97.06005859 179.67138672 C-93.6216383 190.23178004 -89.59641053 200.37047051 -84.05859375 210.01171875 C-83.12015651 211.69737562 -82.25278458 213.4228868 -81.421875 215.1640625 C-79.21572071 219.3943098 -76.3550631 222.98644483 -73.45703125 226.76171875 C-71.8125 229.25 -71.8125 229.25 -71.8125 232.25 C-71.214375 232.45625 -70.61625 232.6625 -70 232.875 C-67.00013941 234.76062666 -66.35952895 237.09406095 -64.8125 240.25 C-62.45837234 242.85414714 -62.45837234 242.85414714 -59.8125 245.25 C-56.99403926 247.99619252 -54.3650272 250.7712949 -51.875 253.8125 C-49.20772414 256.98160868 -46.34072086 259.05466258 -42.8125 261.25 C-41.7930881 262.23020375 -40.79003644 263.22803008 -39.8125 264.25 C-38.7296875 265.0234375 -38.7296875 265.0234375 -37.625 265.8125 C-37.026875 266.286875 -36.42875 266.76125 -35.8125 267.25 C-35.8125 267.91 -35.8125 268.57 -35.8125 269.25 C-35.235 269.353125 -34.6575 269.45625 -34.0625 269.5625 C-31.46958532 270.35477948 -29.96454226 271.61966495 -27.8125 273.25 C-26.966875 273.58 -26.12125 273.91 -25.25 274.25 C-22.78185799 275.26257108 -21.53660817 276.25366422 -19.8125 278.25 C-25.47022659 277.75370819 -29.59218029 276.62287259 -34.8125 274.25 C-36.070625 273.899375 -37.32875 273.54875 -38.625 273.1875 C-41.8125 272.25 -41.8125 272.25 -43.8125 270.25 C-45.37521897 269.55577053 -46.96259075 268.91610213 -48.5625 268.3125 C-63.72684152 262.42131696 -63.72684152 262.42131696 -65.8125 258.25 C-67.19674504 257.38341684 -68.62038439 256.57892237 -70.0625 255.8125 C-70.87074219 255.37421875 -71.67898438 254.9359375 -72.51171875 254.484375 C-73.65060547 253.87335938 -73.65060547 253.87335938 -74.8125 253.25 C-77.875 251.5625 -77.875 251.5625 -79.8125 250.25 C-79.8125 249.59 -79.8125 248.93 -79.8125 248.25 C-80.39 248.1675 -80.9675 248.085 -81.5625 248 C-84.48679763 247.02523412 -85.69887085 245.48796027 -87.8125 243.25 C-88.8025 242.445625 -89.7925 241.64125 -90.8125 240.8125 C-93.57711352 238.45105928 -95.56298633 236.08003333 -97.8125 233.25 C-99.45889965 231.89172029 -101.12545807 230.55745749 -102.8125 229.25 C-105.44884482 226.76873429 -107.80056327 224.26790509 -109.8125 221.25 C-109.8125 220.59 -109.8125 219.93 -109.8125 219.25 C-110.8025 218.92 -111.7925 218.59 -112.8125 218.25 C-114.1665932 216.26399663 -115.49707624 214.26182457 -116.8125 212.25 C-117.59625 211.528125 -118.38 210.80625 -119.1875 210.0625 C-122.22809394 206.80472078 -124.0105514 203.49816364 -126.05859375 199.5625 C-127.38034311 197.0661894 -128.73863755 194.62601705 -130.16015625 192.1875 C-130.56717773 191.48471924 -130.97419922 190.78193848 -131.39355469 190.05786133 C-132.19893934 188.67111158 -133.01055219 187.28795557 -133.82910156 185.90893555 C-136.07193572 182.01213256 -137.3809625 178.81297847 -137.8125 174.25 C-135.8125 176.25 -135.8125 176.25 -135.8125 179.25 C-135.1525 179.25 -134.4925 179.25 -133.8125 179.25 C-134.0290625 178.09242188 -134.245625 176.93484375 -134.46875 175.7421875 C-134.75027657 174.20317557 -135.03151113 172.6641102 -135.3125 171.125 C-135.45558594 170.36445313 -135.59867187 169.60390625 -135.74609375 168.8203125 C-136.51562456 164.56957086 -136.97894376 160.59140803 -136.8125 156.25 C-137.4725 156.25 -138.1325 156.25 -138.8125 156.25 C-139.82531121 148.72625957 -139.96278592 141.33577519 -139.9375 133.75 C-139.94136719 132.55890625 -139.94523437 131.3678125 -139.94921875 130.140625 C-139.94792969 129.01140625 -139.94664062 127.8821875 -139.9453125 126.71875 C-139.94362061 125.17864258 -139.94362061 125.17864258 -139.94189453 123.60742188 C-139.8125 121.25 -139.8125 121.25 -138.8125 120.25 C-138.49449807 118.88514093 -138.22605899 117.50863483 -137.98046875 116.12890625 C-137.82368652 115.28046143 -137.6669043 114.4320166 -137.50537109 113.55786133 C-137.33859863 112.65189209 -137.17182617 111.74592285 -137 110.8125 C-135.7684066 104.35033055 -134.41464851 98.37437074 -131.6875 92.35546875 C-130.45901384 89.39942393 -129.87264699 86.39897623 -129.3046875 83.2578125 C-128.7632369 81.04903784 -127.89418704 79.24352239 -126.8125 77.25 C-126.1525 77.25 -125.4925 77.25 -124.8125 77.25 C-123.8225 74.28 -122.8325 71.31 -121.8125 68.25 C-121.1525 68.25 -120.4925 68.25 -119.8125 68.25 C-119.544375 67.54875 -119.27625 66.8475 -119 66.125 C-115.43263362 57.48821823 -110.57457863 50.68222114 -103.8125 44.25 C-102.70743512 43.12588228 -101.60334228 42.00080853 -100.5 40.875 C-89.85164835 30.25 -89.85164835 30.25 -86.8125 30.25 C-86.8125 29.59 -86.8125 28.93 -86.8125 28.25 C-80.0625 24.25 -80.0625 24.25 -77.8125 24.25 C-77.3175 22.765 -77.3175 22.765 -76.8125 21.25 C-75.4925 21.25 -74.1725 21.25 -72.8125 21.25 C-72.8125 20.59 -72.8125 19.93 -72.8125 19.25 C-71.39771865 18.60004703 -69.98058513 17.95521278 -68.5625 17.3125 C-67.37914062 16.77302734 -67.37914062 16.77302734 -66.171875 16.22265625 C-64.05426302 15.34966721 -62.04580638 14.73661492 -59.8125 14.25 C-59.8125 13.59 -59.8125 12.93 -59.8125 12.25 C-40.52629032 3.62897539 -21.05937133 0.02350498 0 0 Z " fill="#7A7A7A" transform="translate(549.8125,278.75)"/>
<path d="M0 0 C0.99 0.495 0.99 0.495 2 1 C2 1.99 2 2.98 2 4 C2.66 4 3.32 4 4 4 C4.31453125 4.88300781 4.6290625 5.76601563 4.953125 6.67578125 C5.38109375 7.87589844 5.8090625 9.07601563 6.25 10.3125 C6.47743896 10.95695068 6.70487793 11.60140137 6.93920898 12.26538086 C7.93714067 15.08243339 8.94860601 17.87457639 10.08203125 20.640625 C15.79789377 34.7594886 18.14531601 51.41602354 18.16796875 66.6015625 C18.17129715 67.4004892 18.17462555 68.19941589 18.17805481 69.02255249 C18.18308708 70.70497061 18.18546429 72.38739858 18.18530273 74.06982422 C18.18747636 76.59750545 18.20563633 79.12474019 18.22460938 81.65234375 C18.27504656 95.6229297 16.45997721 108.74370534 13.375 122.375 C13.14554688 123.40882813 12.91609375 124.44265625 12.6796875 125.5078125 C12.12446933 128.00629426 11.56457316 130.50361881 11 133 C10.34 133 9.68 133 9 133 C8.96132813 133.8353125 8.96132813 133.8353125 8.921875 134.6875 C8.47626831 140.68293548 6.94927498 144.76741536 4 150 C3.67 149.01 3.34 148.02 3 147 C2.66226563 147.5775 2.32453125 148.155 1.9765625 148.75 C1.53054688 149.4925 1.08453125 150.235 0.625 151 C0.18414063 151.7425 -0.25671875 152.485 -0.7109375 153.25 C-1.13632812 153.8275 -1.56171875 154.405 -2 155 C-2.66 155 -3.32 155 -4 155 C-4.0825 155.515625 -4.165 156.03125 -4.25 156.5625 C-5.95817346 162.11406374 -8.89755241 166.03430066 -13 170 C-13.309375 170.639375 -13.61875 171.27875 -13.9375 171.9375 C-16.64093796 177.18535016 -22.22370402 181.02610907 -26.6875 184.8125 C-27.26822266 185.31458984 -27.84894531 185.81667969 -28.44726562 186.33398438 C-32.76169218 190 -32.76169218 190 -35 190 C-35 190.66 -35 191.32 -35 192 C-36.98 192.66 -38.96 193.32 -41 194 C-41 194.66 -41 195.32 -41 196 C-51.44118125 203.2285101 -62.95752793 208.11444265 -75 212 C-75.94101562 212.32226562 -76.88203125 212.64453125 -77.8515625 212.9765625 C-95.30166985 218.23617232 -112.65201831 215.17647265 -128.75 207.4375 C-136.82129387 202.74147448 -144.54498723 195.20264176 -149 187 C-148.27941406 187.2165625 -147.55882812 187.433125 -146.81640625 187.65625 C-138.6125267 189.7835465 -130.82634483 190.32977541 -122.375 190.375 C-121.33931885 190.38853516 -120.3036377 190.40207031 -119.23657227 190.41601562 C-111.76725219 190.37349914 -105.16179414 189.0462269 -98 187 C-96.07800781 186.52626953 -96.07800781 186.52626953 -94.1171875 186.04296875 C-85.89713174 183.87406247 -78.12909766 181.12909766 -72 175 C-71.01 175 -70.02 175 -69 175 C-69 174.34 -69 173.68 -69 173 C-67.3203125 171.7109375 -67.3203125 171.7109375 -65.125 170.375 C-64.40570312 169.92898438 -63.68640625 169.48296875 -62.9453125 169.0234375 C-61 168 -61 168 -59 168 C-59 167.34 -59 166.68 -59 166 C-54.52941176 162 -54.52941176 162 -52 162 C-51.773125 161.4225 -51.54625 160.845 -51.3125 160.25 C-50 158 -50 158 -47.6875 156.1875 C-45.29700301 154.24174664 -44.01111622 152.74766942 -42.3125 150.25 C-41.549375 149.1775 -40.78625 148.105 -40 147 C-39.34 147 -38.68 147 -38 147 C-37.7525 146.05125 -37.505 145.1025 -37.25 144.125 C-35.79055367 140.47638418 -35.27069167 140.63534584 -32 139 C-31.29373761 137.01363702 -30.63106429 135.01151741 -30 133 C-28.68678142 131.3174387 -27.35386936 129.65002828 -26 128 C-25.30959426 126.34302621 -24.6469365 124.6744239 -24 123 C-23.20293273 121.53317481 -22.38863457 120.07565297 -21.5625 118.625 C-7.40082738 93.4994518 -1.20572361 62.11349822 -0.68359375 33.49609375 C-0.6524221 32.05025658 -0.6524221 32.05025658 -0.62062073 30.57521057 C-0.55581104 27.52937182 -0.49656284 24.48345505 -0.4375 21.4375 C-0.39424938 19.35871624 -0.35063312 17.27994006 -0.30664062 15.20117188 C-0.20020112 10.1341923 -0.09874547 5.06713512 0 0 Z " fill="#797979" transform="translate(739,308)"/>
<path d="M0 0 C6.6 0 13.2 0 20 0 C20 8.91 20 17.82 20 27 C21.65 27 23.3 27 25 27 C25.33837891 25.83404297 25.33837891 25.83404297 25.68359375 24.64453125 C27.43653179 19.79144167 29.73219326 15.28548855 32.0625 10.6875 C32.75182617 9.30981445 32.75182617 9.30981445 33.45507812 7.90429688 C36.85944475 1.14055525 36.85944475 1.14055525 38 0 C39.41570123 -0.08651611 40.835595 -0.10704904 42.25390625 -0.09765625 C43.53491211 -0.09282227 43.53491211 -0.09282227 44.84179688 -0.08789062 C45.73962891 -0.07951172 46.63746094 -0.07113281 47.5625 -0.0625 C48.46419922 -0.05798828 49.36589844 -0.05347656 50.29492188 -0.04882812 C52.53001314 -0.03700225 54.76497437 -0.0205222 57 0 C56.38500795 4.85370648 54.30207516 8.66843373 52.0625 12.9375 C49.65177409 17.55626109 47.49950707 21.98332451 46 27 C47.299375 26.814375 47.299375 26.814375 48.625 26.625 C52.50677795 27.05630866 54.0878352 28.28051933 56.74075317 31.08920288 C59.0951126 34.66173777 58.75502999 38.36765325 58.62109375 42.51953125 C58.61497574 43.41870773 58.60885773 44.31788422 58.60255432 45.24430847 C58.57571345 48.10153378 58.50657158 50.95601694 58.4375 53.8125 C58.41596702 55.75192549 58.3970585 57.691382 58.38085938 59.63085938 C58.21202785 73.78797215 58.21202785 73.78797215 57 75 C55.58429877 75.08651611 54.164405 75.10704904 52.74609375 75.09765625 C51.9770874 75.09515869 51.20808105 75.09266113 50.41577148 75.09008789 C49.43294189 75.08098389 48.4501123 75.07187988 47.4375 75.0625 C44.323125 75.041875 41.20875 75.02125 38 75 C38 65.43 38 55.86 38 46 C32.06 46 26.12 46 20 46 C20.01160156 48.00964844 20.02320313 50.01929688 20.03515625 52.08984375 C20.0421074 54.02921424 20.04902396 55.96858503 20.05493164 57.90795898 C20.05997057 59.25920386 20.06680177 60.61044326 20.07543945 61.96166992 C20.08752419 63.90020434 20.09269828 65.838778 20.09765625 67.77734375 C20.10551147 69.52905884 20.10551147 69.52905884 20.11352539 71.31616211 C20 74 20 74 19 75 C17.66956375 75.0983721 16.33406656 75.13078592 15 75.1328125 C14.195625 75.13410156 13.39125 75.13539063 12.5625 75.13671875 C11.716875 75.13285156 10.87125 75.12898437 10 75.125 C9.154375 75.12886719 8.30875 75.13273438 7.4375 75.13671875 C6.633125 75.13542969 5.82875 75.13414062 5 75.1328125 C4.2575 75.13168457 3.515 75.13055664 2.75 75.12939453 C1 75 1 75 0 74 C-0.09443335 71.69946165 -0.11742128 69.39597827 -0.11352539 67.09350586 C-0.11367142 66.37159561 -0.11381744 65.64968536 -0.1139679 64.90589905 C-0.11326869 62.50885053 -0.10547595 60.11187877 -0.09765625 57.71484375 C-0.0957921 56.05717511 -0.09436818 54.39950593 -0.09336853 52.74183655 C-0.08954312 48.37045786 -0.07971265 43.99911219 -0.06866455 39.62774658 C-0.05845092 35.17045539 -0.05387101 30.71315889 -0.04882812 26.25585938 C-0.0380904 17.50388938 -0.02049342 8.7519526 0 0 Z " fill="#9F9F9F" transform="translate(586,613)"/>
<path d="M0 0 C5.00784644 1.66928215 6.62316616 6.50029538 9 11 C17.16179095 28.85587216 13.76070594 51.90178218 8 70 C6.31238014 73.93637333 4.32508962 77.41718647 2 81 C0.98470459 83.32671865 -0.01488198 85.6603447 -1 88 C-4.46297275 95.28112219 -7.83304481 102.25723477 -13.0625 108.4375 C-15.33169854 111.43869807 -16.53010782 114.54894881 -18 118 C-18.97850195 119.02104551 -19.97980427 120.0206121 -21 121 C-21.96857897 122.74344214 -22.93672255 124.48713715 -23.8984375 126.234375 C-25.5507419 128.88274943 -27.74608924 130.85878478 -30 133 C-32.80388377 136.28220927 -32.80388377 136.28220927 -34.9375 140 C-36.44568147 142.83892982 -38.73465325 144.73465325 -41 147 C-41.495 147.845625 -41.99 148.69125 -42.5 149.5625 C-44 152 -44 152 -46.37890625 153.8828125 C-48.86734759 155.89285006 -50.5322228 157.76479677 -52.4375 160.3125 C-57.64958227 166.98986578 -63.49263034 173.04035398 -69.30419922 179.19091797 C-71.69593664 181.74242593 -74.03254421 184.34065987 -76.375 186.9375 C-80.86456119 191.8460869 -85.49283011 196.59992809 -90.1875 201.3125 C-91.16759033 202.29947876 -91.16759033 202.29947876 -92.16748047 203.30639648 C-96.04168052 207.1683951 -100.03684246 210.82519087 -104.17700195 214.3996582 C-106.55123277 216.48390663 -108.78391179 218.68678541 -111 220.9375 C-111.763125 221.70964844 -112.52625 222.48179687 -113.3125 223.27734375 C-114.1478125 224.13005859 -114.1478125 224.13005859 -115 225 C-115.66 224.67 -116.32 224.34 -117 224 C-116.43152344 223.3709375 -115.86304688 222.741875 -115.27734375 222.09375 C-114.50519531 221.2378125 -113.73304688 220.381875 -112.9375 219.5 C-112.12023437 218.59507812 -111.30296875 217.69015625 -110.4609375 216.7578125 C-107.71946584 213.68562362 -105.05093951 210.55738863 -102.41015625 207.3984375 C-101 206 -101 206 -99 206 C-98.773125 205.46246094 -98.54625 204.92492187 -98.3125 204.37109375 C-96.59103785 201.26119041 -94.32802597 198.72384423 -92 196.0625 C-85.20947712 188.16200948 -78.38527354 180.13146307 -73 171.1875 C-72.34 170.135625 -71.68 169.08375 -71 168 C-70.34 168 -69.68 168 -69 168 C-68.72929688 167.41734375 -68.45859375 166.8346875 -68.1796875 166.234375 C-67.00571797 164.01083007 -65.69020139 162.21258413 -64.125 160.25 C-62.03308367 157.53000225 -60.37892525 154.92480187 -58.9375 151.8125 C-57.21535304 148.13141088 -54.91697472 145.8421805 -52 143 C-50.20679176 139.83354526 -50.20679176 139.83354526 -49 137 C-48.34 137 -47.68 137 -47 137 C-46.92394531 136.32582031 -46.84789062 135.65164063 -46.76953125 134.95703125 C-45.76441261 131.09472255 -43.79727543 128.02600865 -41.6875 124.6875 C-38.89278021 120.21686917 -36.32481087 115.74556219 -34.01147461 111.0065918 C-32.64508365 108.29590696 -31.12480467 105.68674875 -29.59985352 103.06298828 C-25.96743844 96.81135856 -23.04291748 90.96995374 -21 84 C-20.34 83.34 -19.68 82.68 -19 82 C-18.07244575 79.81322058 -17.20426152 77.6009125 -16.375 75.375 C-15.92898438 74.18648438 -15.48296875 72.99796875 -15.0234375 71.7734375 C-14.68570313 70.85820312 -14.34796875 69.94296875 -14 69 C-13.34 69 -12.68 69 -12 69 C-11.89042969 68.29875 -11.78085937 67.5975 -11.66796875 66.875 C-10.79734567 61.66541801 -9.73027192 56.94136189 -7.73046875 52.05859375 C-6.34626954 48.15766871 -5.7087161 44.06886417 -5 40 C-4.34 40 -3.68 40 -3 40 C-3.04125 38.741875 -3.0825 37.48375 -3.125 36.1875 C-3.13036649 32.71001512 -2.78809596 29.58436407 -2.0625 26.1875 C-0.32540877 17.58828241 -0.32539042 8.74272681 0 0 Z " fill="#BBBBBB" transform="translate(722,225)"/>
<path d="M0 0 C19.14 0 38.28 0 58 0 C58 5.94 58 11.88 58 18 C57 19 57 19 55.23413086 19.11352539 C54.48526611 19.10828857 53.73640137 19.10305176 52.96484375 19.09765625 C52.15595703 19.09443359 51.34707031 19.09121094 50.51367188 19.08789062 C49.66353516 19.07951172 48.81339844 19.07113281 47.9375 19.0625 C47.08349609 19.05798828 46.22949219 19.05347656 45.34960938 19.04882812 C43.23304337 19.03700373 41.11651315 19.01906769 39 19 C39.00222061 19.68682358 39.00444122 20.37364716 39.00672913 21.08128357 C39.02877895 28.20205162 39.04390533 35.32281004 39.05493164 42.44360352 C39.05997383 45.10441481 39.06680736 47.76522332 39.07543945 50.42602539 C39.08751009 54.24105516 39.09322929 58.05604844 39.09765625 61.87109375 C39.10281754 63.06899033 39.10797882 64.2668869 39.11329651 65.50108337 C39.11337204 66.6021492 39.11344757 67.70321503 39.11352539 68.83764648 C39.115746 69.81249496 39.11796661 70.78734344 39.12025452 71.79173279 C39 74 39 74 38 75 C36.66956375 75.0983721 35.33406656 75.13078592 34 75.1328125 C33.195625 75.13410156 32.39125 75.13539063 31.5625 75.13671875 C30.716875 75.13285156 29.87125 75.12898437 29 75.125 C28.154375 75.12886719 27.30875 75.13273438 26.4375 75.13671875 C25.633125 75.13542969 24.82875 75.13414062 24 75.1328125 C23.2575 75.13168457 22.515 75.13055664 21.75 75.12939453 C20 75 20 75 19 74 C18.9064081 72.28134591 18.88255389 70.55884256 18.88647461 68.83764648 C18.88655014 67.73658066 18.88662567 66.63551483 18.88670349 65.50108337 C18.89186478 64.3031868 18.89702606 63.10529022 18.90234375 61.87109375 C18.9037587 60.65172623 18.90517365 59.4323587 18.90663147 58.17604065 C18.91225033 54.2631693 18.92480604 50.35035419 18.9375 46.4375 C18.94251257 43.79231853 18.9470759 41.14713617 18.95117188 38.50195312 C18.96222589 32.00128026 18.97950317 25.50064968 19 19 C12.73 19 6.46 19 0 19 C0 12.73 0 6.46 0 0 Z " fill="#AEAEAE" transform="translate(512,613)"/>
<path d="M0 0 C12.50669282 10.99677319 18.74537119 27.30967108 19.94238281 43.60546875 C20.78646896 61.76128398 19.28176913 79.87983593 14.71484375 97.5078125 C14.05484375 97.5078125 13.39484375 97.5078125 12.71484375 97.5078125 C12.67617188 98.45527344 12.67617188 98.45527344 12.63671875 99.421875 C12.12527089 107.48880256 10.1292225 114.81548951 7.71484375 122.5078125 C7.05484375 122.5078125 6.39484375 122.5078125 5.71484375 122.5078125 C5.4828125 123.74402344 5.25078125 124.98023438 5.01171875 126.25390625 C3.66585738 132.29729601 1.32895536 137.86452782 -1.03515625 143.5703125 C-1.94562099 145.79751937 -2.85447799 148.02538416 -3.76171875 150.25390625 C-4.1990332 151.32753418 -4.63634766 152.40116211 -5.08691406 153.50732422 C-6.36933723 156.71860799 -7.56239903 159.95173157 -8.72363281 163.20825195 C-12.79236996 174.61431701 -18.57689307 184.91885986 -24.90625 195.21484375 C-26.78920299 198.34598654 -28.50326105 201.5614846 -30.20703125 204.79296875 C-31.28515625 206.5078125 -31.28515625 206.5078125 -33.28515625 207.5078125 C-31.34891327 201.30303386 -29.02906484 195.39955531 -26.28515625 189.5078125 C-25.62515625 189.5078125 -24.96515625 189.5078125 -24.28515625 189.5078125 C-24.16398438 188.92773438 -24.0428125 188.34765625 -23.91796875 187.75 C-22.94780151 183.22752808 -21.85117842 178.87030284 -20.28515625 174.5078125 C-19.62515625 174.5078125 -18.96515625 174.5078125 -18.28515625 174.5078125 C-18.18203125 173.3528125 -18.07890625 172.1978125 -17.97265625 171.0078125 C-17.42480512 166.49609731 -16.00766835 162.70175501 -14.28515625 158.5078125 C-13.62515625 158.5078125 -12.96515625 158.5078125 -12.28515625 158.5078125 C-12.16398438 157.83234375 -12.0428125 157.156875 -11.91796875 156.4609375 C-11.75039063 155.56890625 -11.5828125 154.676875 -11.41015625 153.7578125 C-11.24773438 152.87609375 -11.0853125 151.994375 -10.91796875 151.0859375 C-10.28515625 148.5078125 -10.28515625 148.5078125 -9.32397461 146.64941406 C-8.19873586 144.32965042 -7.61147808 142.17425875 -7.03125 139.6640625 C-6.81662109 138.74753906 -6.60199219 137.83101562 -6.38085938 136.88671875 C-6.16365234 135.93667969 -5.94644531 134.98664063 -5.72265625 134.0078125 C-5.28391618 132.1223814 -4.84511636 130.23696421 -4.40625 128.3515625 C-4.21474365 127.51818359 -4.0232373 126.68480469 -3.82592773 125.82617188 C-3.33330996 123.71425387 -2.81765378 121.60998334 -2.28515625 119.5078125 C-1.62515625 119.5078125 -0.96515625 119.5078125 -0.28515625 119.5078125 C-0.34703125 118.4146875 -0.40890625 117.3215625 -0.47265625 116.1953125 C-0.47265625 111.6825444 0.60185623 107.7834276 1.85546875 103.47265625 C9.8101305 76.02907322 12.78929139 42.42058058 -1.28515625 16.5078125 C-4.25814942 12.08849833 -6.80444014 9.15394317 -11.72265625 7.0078125 C-12.56828125 6.8428125 -13.41390625 6.6778125 -14.28515625 6.5078125 C-14.28515625 5.8478125 -14.28515625 5.1878125 -14.28515625 4.5078125 C-22.77125289 4.85473334 -22.77125289 4.85473334 -30.28515625 8.5078125 C-30.94515625 8.1778125 -31.60515625 7.8478125 -32.28515625 7.5078125 C-24.09461018 -0.63809844 -11.10047889 -7.46996932 0 0 Z " fill="#9B9B9B" transform="translate(639.28515625,183.4921875)"/>
<path d="M0 0 C4.29706928 1.98819623 6.47001651 3.86613721 8.46875 8.28125 C8.86407663 11.1473681 8.84323411 13.95529045 8.78125 16.84375 C8.78447266 17.59849609 8.78769531 18.35324219 8.79101562 19.13085938 C8.75375802 22.9751671 8.63562158 26.02662616 6.46875 29.28125 C5.80875 29.28125 5.14875 29.28125 4.46875 29.28125 C4.46875 29.94125 4.46875 30.60125 4.46875 31.28125 C3.80875 31.28125 3.14875 31.28125 2.46875 31.28125 C2.46875 31.94125 2.46875 32.60125 2.46875 33.28125 C-0.75690944 34.89407972 -4.24065808 34.54912069 -7.78125 34.59375 C-8.53277344 34.62275391 -9.28429687 34.65175781 -10.05859375 34.68164062 C-15.3314788 34.7414552 -18.49371844 33.97833881 -22.53125 30.28125 C-25.55221916 25.05630333 -25.92738706 20.69093745 -25.71875 14.84375 C-25.70521484 14.11220703 -25.69167969 13.38066406 -25.67773438 12.62695312 C-25.64278874 10.84472578 -25.58899805 9.06288427 -25.53125 7.28125 C-24.87125 7.28125 -24.21125 7.28125 -23.53125 7.28125 C-23.4384375 6.3840625 -23.4384375 6.3840625 -23.34375 5.46875 C-20.28397537 -2.76910477 -6.80010731 -1.93089467 0 0 Z " fill="#868686" transform="translate(638.53125,715.71875)"/>
<path d="M0 0 C6.27 0 12.54 0 19 0 C19 0.33 19 0.66 19 1 C13.06 1 7.12 1 1 1 C1.00785522 3.4913147 1.00785522 3.4913147 1.01586914 6.03295898 C1.03391058 12.16983506 1.04542886 18.30670877 1.05493164 24.44360352 C1.05997383 27.10441481 1.06680736 29.76522332 1.07543945 32.42602539 C1.08751009 36.24105516 1.09322929 40.05604844 1.09765625 43.87109375 C1.10281754 45.06899033 1.10797882 46.2668869 1.11329651 47.50108337 C1.11340981 49.15268211 1.11340981 49.15268211 1.11352539 50.83764648 C1.115746 51.81249496 1.11796661 52.78734344 1.12025452 53.79173279 C1 56 1 56 0 57 C-1.33043625 57.0983721 -2.66593344 57.13078592 -4 57.1328125 C-4.804375 57.13410156 -5.60875 57.13539063 -6.4375 57.13671875 C-7.283125 57.13285156 -8.12875 57.12898437 -9 57.125 C-9.845625 57.12886719 -10.69125 57.13273438 -11.5625 57.13671875 C-12.366875 57.13542969 -13.17125 57.13414062 -14 57.1328125 C-14.7425 57.13168457 -15.485 57.13055664 -16.25 57.12939453 C-18 57 -18 57 -19 56 C-19.0935919 54.28134591 -19.11744611 52.55884256 -19.11352539 50.83764648 C-19.11344986 49.73658066 -19.11337433 48.63551483 -19.11329651 47.50108337 C-19.10813522 46.3031868 -19.10297394 45.10529022 -19.09765625 43.87109375 C-19.0962413 42.65172623 -19.09482635 41.4323587 -19.09336853 40.17604065 C-19.08774967 36.2631693 -19.07519396 32.35035419 -19.0625 28.4375 C-19.05748743 25.79231853 -19.0529241 23.14713617 -19.04882812 20.50195312 C-19.03777411 14.00128274 -19.02101764 7.50064539 -19 1 C-18.23945312 1.77730469 -17.47890625 2.55460938 -16.6953125 3.35546875 C-11.63062057 8.39649807 -11.63062057 8.39649807 -5 10 C-2.7484395 9.02108177 -2.7484395 9.02108177 -1 7 C-0.67 4.69 -0.34 2.38 0 0 Z " fill="#9F9F9F" transform="translate(550,631)"/>
<path d="M0 0 C3.135 -0.103125 6.27 -0.20625 9.5 -0.3125 C10.95696289 -0.38078003 10.95696289 -0.38078003 12.44335938 -0.45043945 C18.86633236 -0.55169666 23.12159972 0.74295775 28 5 C31.3662072 8.98367716 31.37904282 12.38132166 31.3125 17.5 C31.30863281 18.7890625 31.30476563 20.078125 31.30078125 21.40625 C31.01798794 24.78507919 30.59159645 27.0304442 29 30 C24.46358459 33.47470116 21.01836023 35.13387491 15.33203125 35.09765625 C14.52741455 35.09515869 13.72279785 35.09266113 12.89379883 35.09008789 C11.36855591 35.07643188 11.36855591 35.07643188 9.8125 35.0625 C4.9553125 35.0315625 4.9553125 35.0315625 0 35 C0 23.45 0 11.9 0 0 Z " fill="#808080" transform="translate(362,715)"/>
<path d="M0 0 C9.60425054 14.40637582 2.52173109 43.80655835 -0.51928711 59.6953125 C-0.96103682 61.81319838 -1.45747901 63.90591121 -2 66 C-2.66 66 -3.32 66 -4 66 C-4.03867187 66.94746094 -4.03867187 66.94746094 -4.078125 67.9140625 C-4.58957286 75.98099006 -6.58562125 83.30767701 -9 91 C-9.66 91 -10.32 91 -11 91 C-11.23203125 92.23621094 -11.4640625 93.47242188 -11.703125 94.74609375 C-13.04898637 100.78948351 -15.38588839 106.35671532 -17.75 112.0625 C-18.66046474 114.28970687 -19.56932174 116.51757166 -20.4765625 118.74609375 C-20.91387695 119.81972168 -21.35119141 120.89334961 -21.80175781 121.99951172 C-23.08418098 125.21079549 -24.27724278 128.44391907 -25.43847656 131.70043945 C-29.50721371 143.10650451 -35.29173682 153.41104736 -41.62109375 163.70703125 C-43.50404674 166.83817404 -45.2181048 170.0536721 -46.921875 173.28515625 C-48 175 -48 175 -50 176 C-48.06375702 169.79522136 -45.74390859 163.89174281 -43 158 C-42.34 158 -41.68 158 -41 158 C-40.87882813 157.41992188 -40.75765625 156.83984375 -40.6328125 156.2421875 C-39.66264526 151.71971558 -38.56602217 147.36249034 -37 143 C-36.34 143 -35.68 143 -35 143 C-34.896875 141.845 -34.79375 140.69 -34.6875 139.5 C-34.13964887 134.98828481 -32.7225121 131.19394251 -31 127 C-30.34 127 -29.68 127 -29 127 C-28.87882813 126.32453125 -28.75765625 125.6490625 -28.6328125 124.953125 C-28.46523438 124.06109375 -28.29765625 123.1690625 -28.125 122.25 C-27.96257813 121.36828125 -27.80015625 120.4865625 -27.6328125 119.578125 C-27 117 -27 117 -26.03881836 115.14160156 C-24.91357961 112.82183792 -24.32632183 110.66644625 -23.74609375 108.15625 C-23.53146484 107.23972656 -23.31683594 106.32320313 -23.09570312 105.37890625 C-22.87849609 104.42886719 -22.66128906 103.47882813 -22.4375 102.5 C-21.99875993 100.6145689 -21.55996011 98.72915171 -21.12109375 96.84375 C-20.9295874 96.01037109 -20.73808105 95.17699219 -20.54077148 94.31835938 C-20.04815371 92.20644137 -19.53249753 90.10217084 -19 88 C-18.34 88 -17.68 88 -17 88 C-17.061875 86.906875 -17.12375 85.81375 -17.1875 84.6875 C-17.21703629 79.20359577 -15.60575122 74.19957538 -14 69 C-12.68 69.99 -11.36 70.98 -10 72 C-10.495 68.04 -10.495 68.04 -11 64 C-10.34 64 -9.68 64 -9 64 C-9.20625 63.46375 -9.4125 62.9275 -9.625 62.375 C-10.32187705 57.96144535 -8.40034102 54.60051153 -6 51 C-5.34 51 -4.68 51 -4 51 C-4 50.34 -4 49.68 -4 49 C-3.01 49 -2.02 49 -1 49 C-1.04125 47.96875 -1.0825 46.9375 -1.125 45.875 C-1 42 -1 42 -0.00390625 39.484375 C1.44882262 34.44221875 1.25181219 29.59393384 1.1875 24.375 C1.17783203 22.77108398 1.17783203 22.77108398 1.16796875 21.13476562 C1.09890598 14.05151575 0.86414616 7.03661872 0 0 Z " fill="#858585" transform="translate(656,215)"/>
<path d="M0 0 C4.2384375 -0.0928125 4.2384375 -0.0928125 8.5625 -0.1875 C9.43849854 -0.21481201 10.31449707 -0.24212402 11.21704102 -0.27026367 C17.3962571 -0.33516114 21.80935562 0.68368353 26.91015625 4.38671875 C29.21657191 7.80087527 28.56483547 12.08259269 28 16 C26.93687644 18.54051592 25.87159558 19.9082167 24 22 C23.34 22 22.68 22 22 22 C22.433125 22.68707031 22.86625 23.37414062 23.3125 24.08203125 C23.869375 24.98308594 24.42625 25.88414062 25 26.8125 C25.556875 27.70582031 26.11375 28.59914063 26.6875 29.51953125 C28 32 28 32 28 35 C25.36 35 22.72 35 20 35 C19.35242375 33.56328432 18.70700547 32.12559584 18.0625 30.6875 C17.70285156 29.88699219 17.34320312 29.08648438 16.97265625 28.26171875 C16 26 16 26 15 23 C12.03 23 9.06 23 6 23 C6 26.63 6 30.26 6 34 C4.02 34 2.04 34 0 34 C0 22.78 0 11.56 0 0 Z " fill="#7E7E7E" transform="translate(766,715)"/>
<path d="M0 0 C0.99451172 -0.04576172 1.98902344 -0.09152344 3.01367188 -0.13867188 C7.82653573 -0.21232182 11.31709847 -0.24353951 14.98828125 3.11328125 C17.38096792 6.03786827 18.02817069 8.23434531 17.8125 12.0625 C17.76609375 13.44308594 17.76609375 13.44308594 17.71875 14.8515625 C17.17499613 18.31276501 16.51829308 20.52454238 13.671875 22.6796875 C10.31174537 23.75893444 7.04903056 23.64818034 3.5625 23.5625 C2.51642578 23.54896484 2.51642578 23.54896484 1.44921875 23.53515625 C-0.26316958 23.51169888 -1.97538004 23.47583104 -3.6875 23.4375 C-3.6875 27.3975 -3.6875 31.3575 -3.6875 35.4375 C-6.02044775 35.47991723 -8.35452567 35.47842937 -10.6875 35.4375 C-12.39242881 33.73257119 -11.8155442 31.59215739 -11.82644653 29.31848145 C-11.8244223 28.60494507 -11.82239807 27.89140869 -11.8203125 27.15625 C-11.82126923 26.42756714 -11.82222595 25.69888428 -11.82321167 24.94812012 C-11.82389335 23.4047029 -11.82203988 21.86128283 -11.81787109 20.31787109 C-11.81252262 17.947526 -11.81781642 15.57737041 -11.82421875 13.20703125 C-11.82355797 11.71093708 -11.8222768 10.21484303 -11.8203125 8.71875 C-11.82233673 8.00521362 -11.82436096 7.29167725 -11.82644653 6.55651855 C-11.78649412 -1.77553712 -7.22177188 0.13314138 0 0 Z " fill="#6F6F6F" transform="translate(679.6875,714.5625)"/>
<path d="M0 0 C8.58 0 17.16 0 26 0 C26 2.31 26 4.62 26 7 C20.06 7 14.12 7 8 7 C8 9.31 8 11.62 8 14 C12.62 14 17.24 14 22 14 C22 16.31 22 18.62 22 21 C17.05 21 12.1 21 7 21 C7.33 22.98 7.66 24.96 8 27 C13.94 27.33 19.88 27.66 26 28 C26 30.31 26 32.62 26 35 C17.42 35 8.84 35 0 35 C0 23.45 0 11.9 0 0 Z " fill="#8A8A8A" transform="translate(414,715)"/>
<path d="M0 0 C8.58 0 17.16 0 26 0 C26 2.31 26 4.62 26 7 C19.73 7 13.46 7 7 7 C7 9.31 7 11.62 7 14 C11.95 14 16.9 14 22 14 C22 16.31 22 18.62 22 21 C17.05 21 12.1 21 7 21 C7.33 22.98 7.66 24.96 8 27 C13.94 27.33 19.88 27.66 26 28 C26 30.31 26 32.62 26 35 C17.42 35 8.84 35 0 35 C0 23.45 0 11.9 0 0 Z " fill="#7F7F7F" transform="translate(718,715)"/>
<path d="M0 0 C8.58 0 17.16 0 26 0 C26 2.31 26 4.62 26 7 C19.73 7 13.46 7 7 7 C7 9.31 7 11.62 7 14 C11.95 14 16.9 14 22 14 C22 16.31 22 18.62 22 21 C17.05 21 12.1 21 7 21 C7 23.31 7 25.62 7 28 C13.27 28 19.54 28 26 28 C26 30.31 26 32.62 26 35 C17.42 35 8.84 35 0 35 C0 23.45 0 11.9 0 0 Z " fill="#8B8B8B" transform="translate(517,715)"/>
<path d="M0 0 C2.31 0 4.62 0 7 0 C9.954827 5.60514892 12.40614616 10.86979294 14 17 C14.37125 17.7425 14.7425 18.485 15.125 19.25 C16 21 16 21 16 24 C16.66 24 17.32 24 18 24 C18.12632812 23.28457031 18.25265625 22.56914063 18.3828125 21.83203125 C19.00187918 18.9913772 19.85869699 16.40945883 20.875 13.6875 C21.22820312 12.73617187 21.58140625 11.78484375 21.9453125 10.8046875 C22.29335938 9.87914062 22.64140625 8.95359375 23 8 C23.30679687 7.17757812 23.61359375 6.35515625 23.9296875 5.5078125 C24.61621487 3.6705345 25.30752968 1.83504635 26 0 C28.31 0 30.62 0 33 0 C32.55966121 5.06389612 31.28312417 9.1498191 29.3203125 13.82421875 C27.55785828 18.06349472 25.90701052 22.34362274 24.25 26.625 C23.63029115 28.22138632 23.01050574 29.81774292 22.390625 31.4140625 C21.93171875 32.59742188 21.4728125 33.78078125 21 35 C18.03 35 15.06 35 12 35 C11.72027344 34.11441406 11.44054687 33.22882812 11.15234375 32.31640625 C8.53296046 24.22242765 5.61267084 16.3601912 2.23608398 8.54907227 C0 3.30633252 0 3.30633252 0 0 Z " fill="#7F7F7F" transform="translate(462,715)"/>
<path d="M0 0 C6.27 0 12.54 0 19 0 C18.08552045 4.57239777 16.6854066 8.14621496 14.625 12.25 C14.16867187 13.20519531 14.16867187 13.20519531 13.703125 14.1796875 C12.88208989 15.82877511 11.94718008 17.41998782 11 19 C10.01 19.33 9.02 19.66 8 20 C7.34 21.98 6.68 23.96 6 26 C1.05 26 -3.9 26 -9 26 C-11.18341359 17.26634564 -4.39904051 7.41552544 0 0 Z " fill="#ADADAD" transform="translate(624,613)"/>
<path d="M0 0 C0.74886475 0.00523682 1.49772949 0.01047363 2.26928711 0.01586914 C3.36188843 0.01961548 3.36188843 0.01961548 4.4765625 0.0234375 C5.40718506 0.0325415 6.33780762 0.04164551 7.29663086 0.05102539 C11.72069336 0.08196289 11.72069336 0.08196289 16.23413086 0.11352539 C16.23413086 7.70352539 16.23413086 15.29352539 16.23413086 23.11352539 C15.57413086 23.11352539 14.91413086 23.11352539 14.23413086 23.11352539 C13.57413086 24.43352539 12.91413086 25.75352539 12.23413086 27.11352539 C11.57413086 26.45352539 10.91413086 25.79352539 10.23413086 25.11352539 C8.58413086 26.76352539 6.93413086 28.41352539 5.23413086 30.11352539 C4.57413086 29.45352539 3.91413086 28.79352539 3.23413086 28.11352539 C3.23413086 26.44685872 3.23413086 24.78019206 3.23413086 23.11352539 C1.58413086 22.78352539 -0.06586914 22.45352539 -1.76586914 22.11352539 C-2.67887823 19.37449813 -2.89433522 17.73904269 -2.89868164 14.91821289 C-2.8999707 14.1202832 -2.90125977 13.32235352 -2.90258789 12.50024414 C-2.8987207 11.67137695 -2.89485352 10.84250977 -2.89086914 9.98852539 C-2.89473633 9.15192383 -2.89860352 8.31532227 -2.90258789 7.45336914 C-2.89080909 0.18584629 -2.89080909 0.18584629 0 0 Z " fill="#B1B1B1" transform="translate(588.765869140625,613.886474609375)"/>
<path d="M0 0 C2.60439033 0.76485813 4.58461392 1.69166588 7 3 C9.22545325 7.4509065 8.49055869 13.16620214 8 18 C6.25 21.3125 6.25 21.3125 3 23 C-1.09119456 23.60279538 -4.93404376 23.81095413 -9 23 C-11.82281328 20.74079411 -12.8500075 19.44997751 -14 16 C-14.57376251 10.70499173 -14.87848503 6.44524956 -12.0625 1.8125 C-7.89160455 -0.65598914 -4.73149325 -0.75897673 0 0 Z " fill="#0A0A0A" transform="translate(633,721)"/>
<path d="M0 0 C0.33 0 0.66 0 1 0 C1.02464638 5.82071622 1.0428343 11.64140234 1.05493164 17.4621582 C1.05997267 19.44393441 1.06680538 21.42570689 1.07543945 23.4074707 C1.08751515 26.24952109 1.09323045 29.09152247 1.09765625 31.93359375 C1.10281754 32.82525742 1.10797882 33.71692108 1.11329651 34.63560486 C1.11349177 36.75740601 1.0621003 38.8791078 1 41 C0 42 0 42 -1.85766602 42.11352539 C-3.04380493 42.10567017 -3.04380493 42.10567017 -4.25390625 42.09765625 C-5.0229126 42.09515869 -5.79191895 42.09266113 -6.58422852 42.09008789 C-7.56705811 42.08098389 -8.5498877 42.07187988 -9.5625 42.0625 C-14.2340625 42.0315625 -14.2340625 42.0315625 -19 42 C-19 32.76 -19 23.52 -19 14 C-18.67 14 -18.34 14 -18 14 C-17.34 16.97 -16.68 19.94 -16 23 C-14.35 23.33 -12.7 23.66 -11 24 C-10.67 22.35 -10.34 20.7 -10 19 C-9.62875 19.495 -9.2575 19.99 -8.875 20.5 C-6.61932646 22.62469505 -6.61932646 22.62469505 -1 22 C-0.67 14.74 -0.34 7.48 0 0 Z " fill="#878787" transform="translate(643,646)"/>
<path d="M0 0 C0.33 0 0.66 0 1 0 C1.33 9.57 1.66 19.14 2 29 C3.98 28.34 5.96 27.68 8 27 C8.99 29.31 9.98 31.62 11 34 C12.485 33.505 12.485 33.505 14 33 C14.33 32.34 14.66 31.68 15 31 C15.33 31.99 15.66 32.98 16 34 C16.99 33.505 16.99 33.505 18 33 C17.97679687 32.38511719 17.95359375 31.77023437 17.9296875 31.13671875 C17.90261719 29.92435547 17.90261719 29.92435547 17.875 28.6875 C17.85179687 27.88699219 17.82859375 27.08648438 17.8046875 26.26171875 C18 24 18 24 20 21 C20.02465881 24.96930989 20.04284023 28.93859034 20.05493164 32.90795898 C20.05997057 34.25920386 20.06680177 35.61044326 20.07543945 36.96166992 C20.08752419 38.90020434 20.09269828 40.838778 20.09765625 42.77734375 C20.10551147 44.52905884 20.10551147 44.52905884 20.11352539 46.31616211 C20 49 20 49 19 50 C17.66956375 50.0983721 16.33406656 50.13078592 15 50.1328125 C14.195625 50.13410156 13.39125 50.13539063 12.5625 50.13671875 C11.716875 50.13285156 10.87125 50.12898437 10 50.125 C9.154375 50.12886719 8.30875 50.13273438 7.4375 50.13671875 C6.633125 50.13542969 5.82875 50.13414062 5 50.1328125 C4.2575 50.13168457 3.515 50.13055664 2.75 50.12939453 C1 50 1 50 0 49 C-0.09319449 47.4651703 -0.117458 45.92607918 -0.11352539 44.38842773 C-0.11344986 43.40748642 -0.11337433 42.4265451 -0.11329651 41.4158783 C-0.10813522 40.3492244 -0.10297394 39.2825705 -0.09765625 38.18359375 C-0.0962413 37.0974025 -0.09482635 36.01121124 -0.09336853 34.8921051 C-0.08775048 31.40720925 -0.07519492 27.92237658 -0.0625 24.4375 C-0.05748733 22.08138113 -0.05292402 19.72526126 -0.04882812 17.36914062 C-0.03777519 11.57940536 -0.02101951 5.78970719 0 0 Z " fill="#898989" transform="translate(586,638)"/>
<path d="M0 0 C0.33 0 0.66 0 1 0 C1.33 14.19 1.66 28.38 2 43 C3.65 42.34 5.3 41.68 7 41 C7 40.34 7 39.68 7 39 C9 39 11 39 13 39 C13.33 38.34 13.66 37.68 14 37 C16.5625 36.375 16.5625 36.375 19 36 C18.82597656 35.45859375 18.65195312 34.9171875 18.47265625 34.359375 C17.90233495 31.51248191 18.12862699 29.13281478 18.4375 26.25 C18.53933594 25.26515625 18.64117188 24.2803125 18.74609375 23.265625 C18.82988281 22.51796875 18.91367187 21.7703125 19 21 C19.33 21 19.66 21 20 21 C20.0246519 25.82380802 20.04283693 30.64757967 20.05493164 35.47143555 C20.05997174 37.11369464 20.06680378 38.75594923 20.07543945 40.39819336 C20.08751926 42.75375479 20.09323139 45.10925709 20.09765625 47.46484375 C20.10281754 48.20339096 20.10797882 48.94193817 20.11329651 49.7028656 C20.1134925 51.46898088 20.06194719 53.23497146 20 55 C18.4779041 56.5220959 17.11789918 56.12959521 15 56.1328125 C14.195625 56.13410156 13.39125 56.13539063 12.5625 56.13671875 C11.716875 56.13285156 10.87125 56.12898437 10 56.125 C9.154375 56.12886719 8.30875 56.13273438 7.4375 56.13671875 C6.633125 56.13542969 5.82875 56.13414062 5 56.1328125 C4.2575 56.13168457 3.515 56.13055664 2.75 56.12939453 C1 56 1 56 0 55 C-0.0935919 53.28134591 -0.11744611 51.55884256 -0.11352539 49.83764648 C-0.11344986 48.73658066 -0.11337433 47.63551483 -0.11329651 46.50108337 C-0.10813522 45.3031868 -0.10297394 44.10529022 -0.09765625 42.87109375 C-0.0962413 41.65172623 -0.09482635 40.4323587 -0.09336853 39.17604065 C-0.08774967 35.2631693 -0.07519396 31.35035419 -0.0625 27.4375 C-0.05748743 24.79231853 -0.0529241 22.14713617 -0.04882812 19.50195312 C-0.03777411 13.00128274 -0.02101764 6.50064539 0 0 Z " fill="#888888" transform="translate(531,632)"/>
<path d="M0 0 C2.31 0 4.62 0 7 0 C7 9.24 7 18.48 7 28 C13.27 28 19.54 28 26 28 C26 30.31 26 32.62 26 35 C17.42 35 8.84 35 0 35 C0 23.45 0 11.9 0 0 Z " fill="#808080" transform="translate(565,715)"/>
<path d="M0 0 C11.11387226 -0.48852186 11.11387226 -0.48852186 14.85546875 1.57421875 C17.72130233 4.81589936 17.67000375 6.78264295 17.625 11.0625 C17.63789063 12.29097656 17.65078125 13.51945313 17.6640625 14.78515625 C17 18 17 18 14.85546875 19.921875 C9.89981693 21.79295558 5.25494578 21.17323997 0 21 C0 14.07 0 7.14 0 0 Z " fill="#030303" transform="translate(369,722)"/>
<path d="M0 0 C9.60425054 14.40637582 2.52173109 43.80655835 -0.51928711 59.6953125 C-0.96103682 61.81319838 -1.45747901 63.90591121 -2 66 C-2.66 66 -3.32 66 -4 66 C-4.04898438 66.71285156 -4.09796875 67.42570312 -4.1484375 68.16015625 C-4.58128523 73.70508491 -5.24028816 78.72086449 -7 84 C-7.66 84 -8.32 84 -9 84 C-9 84.66 -9 85.32 -9 86 C-12 87 -12 87 -15 86 C-14.47462276 80.9697924 -13.89405214 75.98114761 -13 71 C-12.01 71.33 -11.02 71.66 -10 72 C-10.33 69.36 -10.66 66.72 -11 64 C-10.34 64 -9.68 64 -9 64 C-9.20625 63.46375 -9.4125 62.9275 -9.625 62.375 C-10.32187705 57.96144535 -8.40034102 54.60051153 -6 51 C-5.34 51 -4.68 51 -4 51 C-4 50.34 -4 49.68 -4 49 C-3.01 49 -2.02 49 -1 49 C-1.061875 47.453125 -1.061875 47.453125 -1.125 45.875 C-1 42 -1 42 -0.00390625 39.484375 C1.44882262 34.44221875 1.25181219 29.59393384 1.1875 24.375 C1.18105469 23.30572266 1.17460938 22.23644531 1.16796875 21.13476562 C1.09890598 14.05151575 0.86414616 7.03661872 0 0 Z " fill="#9B9B9B" transform="translate(656,215)"/>
<path d="M0 0 C8.58 0 17.16 0 26 0 C26 2.31 26 4.62 26 7 C20.06 7 14.12 7 8 7 C8 9.31 8 11.62 8 14 C12.62 14 17.24 14 22 14 C22 16.31 22 18.62 22 21 C17.05 21 12.1 21 7 21 C7.33 22.98 7.66 24.96 8 27 C13.94 27.33 19.88 27.66 26 28 C26 30.31 26 32.62 26 35 C17.42 35 8.84 35 0 35 C0 23.45 0 11.9 0 0 Z M1 1 C1 11.89 1 22.78 1 34 C2.98 33.505 2.98 33.505 5 33 C6.58692639 32.92133041 8.17678249 32.89215886 9.765625 32.90234375 C10.65507812 32.90556641 11.54453125 32.90878906 12.4609375 32.91210938 C13.38132812 32.92048828 14.30171875 32.92886719 15.25 32.9375 C16.18585938 32.94201172 17.12171875 32.94652344 18.0859375 32.95117188 C20.39069041 32.96293082 22.69531227 32.97936574 25 33 C25 31.68 25 30.36 25 29 C19.06 28.67 13.12 28.34 7 28 C6.67 25.03 6.34 22.06 6 19 C7.32 19 8.64 19 10 19 C10.33 17.68 10.66 16.36 11 15 C9.68 15 8.36 15 7 15 C7.33 11.7 7.66 8.4 8 5 C13.61 5 19.22 5 25 5 C25 3.68 25 2.36 25 1 C17.08 1 9.16 1 1 1 Z " fill="#6C6C6C" transform="translate(414,715)"/>
<path d="M0 0 C6.93 0 13.86 0 21 0 C20.67 0.99 20.34 1.98 20 3 C19.34 3 18.68 3 18 3 C18 3.66 18 4.32 18 5 C13.71 5 9.42 5 5 5 C4.67 8.63 4.34 12.26 4 16 C7.3 16 10.6 16 14 16 C12.3125 18.5 12.3125 18.5 10 21 C8.35 21 6.7 21 5 21 C4.67 24.63 4.34 28.26 4 32 C2.68 32 1.36 32 0 32 C0 21.44 0 10.88 0 0 Z " fill="#8C8C8C" transform="translate(767,716)"/>
<path d="M0 0 C4.62 0 9.24 0 14 0 C13.67 0.99 13.34 1.98 13 3 C10.39137376 4.03131735 7.75952365 4.43057449 5 5 C4.67 8.3 4.34 11.6 4 15 C6.97 15.33 9.94 15.66 13 16 C11.25 18.5 11.25 18.5 9 21 C7.68 21 6.36 21 5 21 C5 24.96 5 28.92 5 33 C3.35 33 1.7 33 0 33 C0 22.11 0 11.22 0 0 Z " fill="#8B8B8B" transform="translate(670,716)"/>
<path d="M0 0 C8.58 0 17.16 0 26 0 C26 2.31 26 4.62 26 7 C19.73 7 13.46 7 7 7 C7 8.98 7 10.96 7 13 C6.67 13 6.34 13 6 13 C6 10.36 6 7.72 6 5 C12.27 5 18.54 5 25 5 C25 3.68 25 2.36 25 1 C17.08 1 9.16 1 1 1 C1.33 11.56 1.66 22.12 2 33 C7.32501538 32.63359014 7.32501538 32.63359014 12.64892578 32.25170898 C16.93931687 31.97786512 20.76080805 32.08579726 25 33 C25 31.68 25 30.36 25 29 C19.06 29 13.12 29 7 29 C7 28.67 7 28.34 7 28 C13.27 28 19.54 28 26 28 C26 30.31 26 32.62 26 35 C17.42 35 8.84 35 0 35 C0 23.45 0 11.9 0 0 Z " fill="#626262" transform="translate(517,715)"/>
<path d="M0 0 C3.96 0 7.92 0 12 0 C11.67 0.99 11.34 1.98 11 3 C9.02 3.66 7.04 4.32 5 5 C5 12.59 5 20.18 5 28 C7.64 28 10.28 28 13 28 C13 28.99 13 29.98 13 31 C8.39452591 32.15136852 5.06005857 32 0 32 C0 21.44 0 10.88 0 0 Z " fill="#8C8C8C" transform="translate(363,716)"/>
<path d="M0 0 C8.58 0 17.16 0 26 0 C26 2.31 26 4.62 26 7 C20.06 7 14.12 7 8 7 C8 6.34 8 5.68 8 5 C13.61 5 19.22 5 25 5 C25 3.68 25 2.36 25 1 C17.08 1 9.16 1 1 1 C1.33 11.56 1.66 22.12 2 33 C7.94 32.505 7.94 32.505 14 32 C21.39240506 31.79746835 21.39240506 31.79746835 25 33 C25 31.68 25 30.36 25 29 C19.06 29 13.12 29 7 29 C7.33 28.34 7.66 27.68 8 27 C13.94 27.33 19.88 27.66 26 28 C26 30.31 26 32.62 26 35 C17.42 35 8.84 35 0 35 C0 23.45 0 11.9 0 0 Z " fill="#5F5F5F" transform="translate(718,715)"/>
<path d="M0 0 C9.60425054 14.40637582 2.52173109 43.80655835 -0.51928711 59.6953125 C-0.96103682 61.81319838 -1.45747901 63.90591121 -2 66 C-2.66 66 -3.32 66 -4 66 C-4.04898438 66.71285156 -4.09796875 67.42570312 -4.1484375 68.16015625 C-4.58128523 73.70508491 -5.24028816 78.72086449 -7 84 C-9 81 -9 81 -8.828125 79.08984375 C-8.63734375 78.37957031 -8.4465625 77.66929687 -8.25 76.9375 C-7.40153952 73.59260772 -6.64199257 70.26617042 -6 66.875 C-5.20497273 62.83676624 -4.19805648 58.93647128 -3 55 C-4.32 55.66 -5.64 56.32 -7 57 C-7.66 56.34 -8.32 55.68 -9 55 C-7.625 53 -7.625 53 -6 51 C-5.34 51 -4.68 51 -4 51 C-4 50.34 -4 49.68 -4 49 C-3.01 49 -2.02 49 -1 49 C-1.061875 47.453125 -1.061875 47.453125 -1.125 45.875 C-1 42 -1 42 -0.00390625 39.484375 C1.44882262 34.44221875 1.25181219 29.59393384 1.1875 24.375 C1.18105469 23.30572266 1.17460938 22.23644531 1.16796875 21.13476562 C1.09890598 14.05151575 0.86414616 7.03661872 0 0 Z " fill="#6D6D6D" transform="translate(656,215)"/>
<path d="M0 0 C2.31 0 4.62 0 7 0 C9.94328372 5.58325193 12.46111143 10.84444571 14 17 C14.65572791 19.00361307 15.31875294 21.00491933 16 23 C14.68 21.68 13.36 20.36 12 19 C9.66924071 19.95865509 9.66924071 19.95865509 8 23 C6.6582322 19.73256344 5.32805641 16.46053092 4 13.1875 C3.6184375 12.25873047 3.236875 11.32996094 2.84375 10.37304688 C2.4828125 9.48037109 2.121875 8.58769531 1.75 7.66796875 C1.41484375 6.84578857 1.0796875 6.0236084 0.734375 5.17651367 C0 3 0 3 0 0 Z " fill="#797979" transform="translate(462,715)"/>
<path d="M0 0 C0.33 0.99 0.66 1.98 1 3 C2.32 2.67 3.64 2.34 5 2 C4.39957229 6.56847172 2.50658877 10.20771309 0.3125 14.1875 C-0.04690674 14.85023926 -0.40631348 15.51297852 -0.77661133 16.19580078 C-3.27543133 20.77132404 -5.89065074 25.26541143 -8.62109375 29.70703125 C-10.50404674 32.83817404 -12.2181048 36.0536721 -13.921875 39.28515625 C-15 41 -15 41 -17 42 C-15.06375702 35.79522136 -12.74390859 29.89174281 -10 24 C-9.34 24 -8.68 24 -8 24 C-7.87882813 23.41992188 -7.75765625 22.83984375 -7.6328125 22.2421875 C-6.66264526 17.71971558 -5.56602217 13.36249034 -4 9 C-3.34 9 -2.68 9 -2 9 C-1.855625 7.700625 -1.71125 6.40125 -1.5625 5.0625 C-1.125 1.125 -1.125 1.125 0 0 Z " fill="#757575" transform="translate(623,349)"/>
<path d="M0 0 C7.59 0 15.18 0 23 0 C23 1.32 23 2.64 23 4 C17.39 4 11.78 4 6 4 C5.9175 5.60875 5.835 7.2175 5.75 8.875 C5.609375 11.6171875 5.609375 11.6171875 5 14 C2.953125 15.3203125 2.953125 15.3203125 1 16 C0 15 0 15 -0.09765625 11.62109375 C-0.09191424 10.22652508 -0.07890228 8.83198403 -0.0625 7.4375 C-0.041875 4.983125 -0.02125 2.52875 0 0 Z " fill="#8A8A8A" transform="translate(720,716)"/>
<path d="M0 0 C1.95825873 -0.02694851 3.91662226 -0.04637218 5.875 -0.0625 C6.96554687 -0.07410156 8.05609375 -0.08570313 9.1796875 -0.09765625 C12 0 12 0 14 1 C14.04241723 3.33294775 14.04092937 5.66702567 14 8 C13 9 13 9 10.05859375 9.09765625 C8.26615234 9.08025391 8.26615234 9.08025391 6.4375 9.0625 C4.64119141 9.04896484 4.64119141 9.04896484 2.80859375 9.03515625 C1.88175781 9.02355469 0.95492187 9.01195312 0 9 C0 6.03 0 3.06 0 0 Z " fill="#040404" transform="translate(773,722)"/>
<path d="M0 0 C1.95766281 -0.08082094 3.91626728 -0.13910778 5.875 -0.1875 C7.51082031 -0.23970703 7.51082031 -0.23970703 9.1796875 -0.29296875 C10.11039063 -0.19628906 11.04109375 -0.09960938 12 0 C14.14809171 3.22213757 14.29386153 4.27775401 14 8 C13 9 13 9 10.05859375 9.09765625 C8.26615234 9.08025391 8.26615234 9.08025391 6.4375 9.0625 C4.64119141 9.04896484 4.64119141 9.04896484 2.80859375 9.03515625 C1.88175781 9.02355469 0.95492187 9.01195312 0 9 C0 6.03 0 3.06 0 0 Z " fill="#020202" transform="translate(676,722)"/>
<path d="M0 0 C4.95 0 9.9 0 15 0 C15 2.31 15 4.62 15 7 C10.05 7 5.1 7 0 7 C0 8.98 0 10.96 0 13 C-0.33 13 -0.66 13 -1 13 C-1 10.36 -1 7.72 -1 5 C0.65 5 2.3 5 4 5 C4 4.01 4 3.02 4 2 C2.68 1.34 1.36 0.68 0 0 Z " fill="#777777" transform="translate(524,729)"/>
<path d="M0 0 C0.33 0.66 0.66 1.32 1 2 C1.99 2.33 2.98 2.66 4 3 C0.13806545 6.95437447 -3.73889922 10.83869933 -7.9375 14.4375 C-12.53303205 18.38435854 -16.76310351 22.67483483 -21 27 C-21.66 26.67 -22.32 26.34 -23 26 C-22.43152344 25.3709375 -21.86304688 24.741875 -21.27734375 24.09375 C-20.11912109 22.80984375 -20.11912109 22.80984375 -18.9375 21.5 C-18.12023437 20.59507812 -17.30296875 19.69015625 -16.4609375 18.7578125 C-13.71946584 15.68562362 -11.05093951 12.55738863 -8.41015625 9.3984375 C-7 8 -7 8 -5 8 C-4.731875 7.4225 -4.46375 6.845 -4.1875 6.25 C-2.98280141 3.9674132 -1.59201885 2.0262058 0 0 Z " fill="#8E8E8E" transform="translate(628,423)"/>
<path d="M0 0 C2 0.9375 2 0.9375 4 3 C4.36475845 6.02534949 4.22893297 8.96663814 4 12 C3.01 12.33 2.02 12.66 1 13 C0.67 12.01 0.34 11.02 0 10 C-3.11785113 10.64644661 -3.11785113 10.64644661 -4 13 C-6 11 -6 11 -6.1953125 9.0546875 C-6.13020833 7.03645833 -6.06510417 5.01822917 -6 3 C-5.34 3.66 -4.68 4.32 -4 5 C-3.34 3.68 -2.68 2.36 -2 1 C-1.34 1.33 -0.68 1.66 0 2 C0 1.34 0 0.68 0 0 Z " fill="#9A9A9A" transform="translate(601,660)"/>
<path d="M0 0 C0.87454834 0.00523682 1.74909668 0.01047363 2.65014648 0.01586914 C3.59438477 0.0190918 4.53862305 0.02231445 5.51147461 0.02563477 C6.50469727 0.03401367 7.49791992 0.04239258 8.52124023 0.05102539 C9.51833008 0.05553711 10.51541992 0.06004883 11.54272461 0.06469727 C14.01478872 0.07652532 16.48673541 0.0930069 18.95874023 0.11352539 C18.95874023 1.43352539 18.95874023 2.75352539 18.95874023 4.11352539 C11.36874023 4.11352539 3.77874023 4.11352539 -4.04125977 4.11352539 C-2.72051884 0.15130263 -2.72051884 0.15130263 0 0 Z " fill="#8C8C8C" transform="translate(724.041259765625,743.886474609375)"/>
<path d="M0 0 C3.875 1.75 3.875 1.75 5 4 C6.32 3.01 7.64 2.02 9 1 C10.125 5.75 10.125 5.75 9 8 C8.34 8 7.68 8 7 8 C6.67 8.66 6.34 9.32 6 10 C5.34 10 4.68 10 4 10 C1.98413316 10.96761608 -0.01753602 11.96567096 -2 13 C-3 12 -3 12 -3.09765625 9.93359375 C-3.08605469 9.10988281 -3.07445312 8.28617188 -3.0625 7.4375 C-3.05347656 6.61121094 -3.04445313 5.78492188 -3.03515625 4.93359375 C-3.02355469 4.29550781 -3.01195312 3.65742187 -3 3 C-2.01 3.495 -2.01 3.495 -1 4 C-0.67 2.68 -0.34 1.36 0 0 Z " fill="#949494" transform="translate(535,663)"/>
<path d="M0 0 C6.27 0.33 12.54 0.66 19 1 C19 3.31 19 5.62 19 8 C11.08 8 3.16 8 -5 8 C-5 7.34 -5 6.68 -5 6 C12.96875 4.32291667 12.96875 4.32291667 18 6 C18 4.68 18 3.36 18 2 C12.06 2 6.12 2 0 2 C0 1.34 0 0.68 0 0 Z " fill="#707070" transform="translate(725,742)"/>
<path d="M0 0 C0.66 0.33 1.32 0.66 2 1 C-2.45351656 6.39109899 -7.27200895 11.4085316 -12.1875 16.375 C-13.09653076 17.3033667 -13.09653076 17.3033667 -14.02392578 18.25048828 C-14.60770996 18.83556152 -15.19149414 19.42063477 -15.79296875 20.0234375 C-16.3139917 20.54856934 -16.83501465 21.07370117 -17.37182617 21.61474609 C-19.13809666 23.11749294 -20.89348536 24.04719579 -23 25 C-19.56971745 17.28186426 -13.03852195 11.83341242 -6.71484375 6.4921875 C-4.35376951 4.43767643 -2.17926289 2.24530115 0 0 Z " fill="#B0B0AF" transform="translate(461,248)"/>
<path d="M0 0 C6.27 0 12.54 0 19 0 C19 2.31 19 4.62 19 7 C11.08 7 3.16 7 -5 7 C-5 6.34 -5 5.68 -5 5 C-2.29204274 4.80398973 0.41599805 4.61795161 3.125 4.4375 C3.88554688 4.38142578 4.64609375 4.32535156 5.4296875 4.26757812 C9.79993128 3.98501926 13.68070669 4.06852301 18 5 C18 3.68 18 2.36 18 1 C12.06 1 6.12 1 0 1 C0 0.67 0 0.34 0 0 Z " fill="#707070" transform="translate(524,743)"/>
<path d="M0 0 C-0.33 0.99 -0.66 1.98 -1 3 C-0.34 3.66 0.32 4.32 1 5 C-0.19625 5.556875 -1.3925 6.11375 -2.625 6.6875 C-9.07868219 9.93141433 -13.57466626 14.40325438 -18 20 C-18.33 19.01 -18.66 18.02 -19 17 C-17.29657414 15.09955869 -15.58752883 13.20471126 -13.875 11.3125 C-13.400625 10.78205078 -12.92625 10.25160156 -12.4375 9.70507812 C-3.62552722 0 -3.62552722 0 0 0 Z " fill="#8A8A8A" transform="translate(614,171)"/>
<path d="M0 0 C4.95 0 9.9 0 15 0 C15.33 0.99 15.66 1.98 16 3 C9.07 2.505 9.07 2.505 2 2 C2 8.93 2 15.86 2 23 C4.97 23 7.94 23 11 23 C11 23.33 11 23.66 11 24 C7.37 24.33 3.74 24.66 0 25 C0 16.75 0 8.5 0 0 Z " fill="#656565" transform="translate(367,720)"/>
<path d="M0 0 C0.66 0.33 1.32 0.66 2 1 C3.19960669 4.59882006 3.16886729 7.58137982 3.1875 11.375 C3.20167969 12.68210937 3.21585937 13.98921875 3.23046875 15.3359375 C3.01320651 18.79003892 2.63296739 20.97901033 1 24 C-4.08108108 28 -4.08108108 28 -8 28 C-7 25 -7 25 -4.5625 23.6875 C-1.16142319 21.44776649 -0.97337325 19.92489215 0 16 C0.21824349 13.20064065 0.19095286 10.43053331 0.125 7.625 C0.11597656 6.88894531 0.10695313 6.15289063 0.09765625 5.39453125 C0.07430144 3.5962112 0.03843836 1.79806089 0 0 Z " fill="#6C6C6C" transform="translate(390,721)"/>
<path d="M0 0 C0.33 0.99 0.66 1.98 1 3 C2.32 2.67 3.64 2.34 5 2 C4.40165275 6.14298667 2.99335715 9.18194377 0.9375 12.8125 C0.38964844 13.78832031 -0.15820312 14.76414062 -0.72265625 15.76953125 C-1.14417969 16.50558594 -1.56570313 17.24164063 -2 18 C-3.51953125 16.69921875 -3.51953125 16.69921875 -5 15 C-4.6875 11.8125 -4.6875 11.8125 -4 9 C-3.34 9 -2.68 9 -2 9 C-1.7834375 7.0509375 -1.7834375 7.0509375 -1.5625 5.0625 C-1.125 1.125 -1.125 1.125 0 0 Z " fill="#707070" transform="translate(623,349)"/>
<path d="M0 0 C1.44826172 -0.02126953 1.44826172 -0.02126953 2.92578125 -0.04296875 C5.76070541 0.19360908 7.38157536 0.53128161 9.6875 2.1875 C10.4375 5.8125 10.4375 5.8125 10.6875 9.1875 C9.6875 7.1875 8.6875 5.1875 7.6875 3.1875 C4.8715151 2.71851037 4.8715151 2.71851037 1.625 2.5625 C-0.03208984 2.45035156 -0.03208984 2.45035156 -1.72265625 2.3359375 C-2.57730469 2.28695312 -3.43195312 2.23796875 -4.3125 2.1875 C-4.3125 5.1575 -4.3125 8.1275 -4.3125 11.1875 C-0.3525 11.1875 3.6075 11.1875 7.6875 11.1875 C7.6875 11.5175 7.6875 11.8475 7.6875 12.1875 C2.7375 12.1875 -2.2125 12.1875 -7.3125 12.1875 C-6.33527228 0.04195545 -6.33527228 0.04195545 0 0 Z " fill="#626262" transform="translate(680.3125,719.8125)"/>
<path d="M0 0 C0.495 0.99 0.495 0.99 1 2 C-3.64877727 0.53196507 -8.13026938 -1.23912989 -12.6328125 -3.09765625 C-17.41212184 -4.91947219 -21.59420406 -5.08993738 -26.6875 -5 C-32.54859396 -4.94149543 -38.18530815 -5.16932974 -44 -6 C-44 -6.33 -44 -6.66 -44 -7 C-29.44463423 -9.68182074 -12.57272444 -8.46563445 0 0 Z " fill="#696969" transform="translate(676,169)"/>
<path d="M0 0 C4.3842841 6.57642616 6.61179489 14.50972034 9 22 C8.34 22 7.68 22 7 22 C5.61819568 19.84716701 4.27136213 17.6822786 2.9375 15.5 C2.54755859 14.89929688 2.15761719 14.29859375 1.75585938 13.6796875 C-1.2361233 8.70187562 -1.19620544 5.66162158 0 0 Z " fill="#A3A3A3" transform="translate(417,456)"/>
<path d="M0 0 C1.46320272 5.20249855 1.72793092 10.81620723 0 16 C0.66 16.33 1.32 16.66 2 17 C1.67 18.65 1.34 20.3 1 22 C0.01 22.33 -0.98 22.66 -2 23 C-3.6610632 21.3389368 -3.21119445 19.40805972 -3.25 17.125 C-3.21824929 11.0685527 -1.86230029 5.73100744 0 0 Z " fill="#909090" transform="translate(642,284)"/>
<path d="M0 0 C2.35694954 0.09031574 4.71153582 0.24688128 7.0625 0.4375 C8.35285156 0.53933594 9.64320313 0.64117188 10.97265625 0.74609375 C12.47119141 0.87177734 12.47119141 0.87177734 14 1 C13.67 1.66 13.34 2.32 13 3 C9.04 2.67 5.08 2.34 1 2 C1 4.97 1 7.94 1 11 C4.96 11 8.92 11 13 11 C13 11.33 13 11.66 13 12 C8.38 12 3.76 12 -1 12 C-1.09765625 3.50390625 -1.09765625 3.50390625 -1 1 C-0.67 0.67 -0.34 0.34 0 0 Z " fill="#5F5F5F" transform="translate(772,720)"/>
<path d="M0 0 C0.66 0 1.32 0 2 0 C0.5735422 3.2586636 -1.16704162 5.4024854 -3.6953125 7.890625 C-4.76845703 8.95410156 -4.76845703 8.95410156 -5.86328125 10.0390625 C-6.60964844 10.76867187 -7.35601562 11.49828125 -8.125 12.25 C-8.87910156 12.99507813 -9.63320313 13.74015625 -10.41015625 14.5078125 C-12.26900772 16.3431342 -14.13237005 18.1736191 -16 20 C-16.66 19.67 -17.32 19.34 -18 19 C-13.42350406 13.43849665 -8.48034959 8.6007865 -3.0390625 3.8828125 C-0.93306009 2.16090625 -0.93306009 2.16090625 0 0 Z " fill="#8C8C8C" transform="translate(458,311)"/>
<path d="M0 0 C0.33 0 0.66 0 1 0 C0.67 2.97 0.34 5.94 0 9 C-0.66 9 -1.32 9 -2 9 C-2.04898438 9.71285156 -2.09796875 10.42570312 -2.1484375 11.16015625 C-2.58128523 16.70508491 -3.24028816 21.72086449 -5 27 C-7 24 -7 24 -6.828125 22.08984375 C-6.63734375 21.37957031 -6.4465625 20.66929687 -6.25 19.9375 C-5.36625648 16.44843467 -4.56750612 12.97028482 -3.875 9.4375 C-3.70742188 8.59058594 -3.53984375 7.74367188 -3.3671875 6.87109375 C-3.24601563 6.25363281 -3.12484375 5.63617188 -3 5 C-2.01 4.67 -1.02 4.34 0 4 C0 2.68 0 1.36 0 0 Z " fill="#767676" transform="translate(654,272)"/>
<path d="M0 0 C0.66 0 1.32 0 2 0 C2.1546875 0.86625 2.1546875 0.86625 2.3125 1.75 C2.87117946 4.10262555 2.87117946 4.10262555 4.625 5.9375 C6 8 6 8 5.6875 10.75 C5.460625 11.4925 5.23375 12.235 5 13 C2 14 2 14 -1 13 C-0.9278125 12.39671875 -0.855625 11.7934375 -0.78125 11.171875 C-0.6884375 10.37265625 -0.595625 9.5734375 -0.5 8.75 C-0.4071875 7.96109375 -0.314375 7.1721875 -0.21875 6.359375 C0.06154619 3.73109603 0.06154619 3.73109603 0 0 Z " fill="#949494" transform="translate(642,288)"/>
<path d="M0 0 C1.60031344 3.20062687 0.03173691 5.72271806 -1 9 C-1.66 9 -2.32 9 -3 9 C-3.433125 10.1446875 -3.433125 10.1446875 -3.875 11.3125 C-5 14 -5 14 -7 17 C-7.33 16.34 -7.66 15.68 -8 15 C-8.99 15.495 -8.99 15.495 -10 16 C-9.690625 15.401875 -9.38125 14.80375 -9.0625 14.1875 C-7.89790296 11.91043228 -7.89790296 11.91043228 -7 9 C-6.34 9 -5.68 9 -5 9 C-4.5978125 7.88625 -4.5978125 7.88625 -4.1875 6.75 C-3.05770579 4.13363446 -1.79106798 2.19812889 0 0 Z " fill="#C5C5C5" transform="translate(742,454)"/>
<path d="M0 0 C1.35250374 4.05751122 0.12776084 7.02809798 -1 11 C-1.21043945 11.77085937 -1.42087891 12.54171875 -1.63769531 13.3359375 C-2.29119081 15.72653572 -2.95648629 18.11356154 -3.625 20.5 C-3.85445313 21.32242187 -4.08390625 22.14484375 -4.3203125 22.9921875 C-4.87925323 24.99505845 -5.43949008 26.99756762 -6 29 C-6.33 29 -6.66 29 -7 29 C-6.6702085 22.18430901 -5.32874792 15.98269685 -3.5 9.4375 C-3.27417236 8.62748535 -3.04834473 7.8174707 -2.81567383 6.98291016 C-1.1399696 1.1399696 -1.1399696 1.1399696 0 0 Z " fill="#424242" transform="translate(407,326)"/>
<path d="M0 0 C0.68707555 2.49064888 1 4.37886292 1 7 C0.34 7 -0.32 7 -1 7 C-1.33 7.99 -1.66 8.98 -2 10 C-2.99 10.33 -3.98 10.66 -5 11 C-6 10 -6 10 -6.09765625 8.15234375 C-6.06510417 6.1015625 -6.03255208 4.05078125 -6 2 C-4.7934375 1.7834375 -4.7934375 1.7834375 -3.5625 1.5625 C-1.07896294 1.25864751 -1.07896294 1.25864751 0 0 Z " fill="#939393" transform="translate(593,665)"/>
<path d="M0 0 C0.33 0 0.66 0 1 0 C0.67 2.97 0.34 5.94 0 9 C-0.99 9.33 -1.98 9.66 -3 10 C-3 10.66 -3 11.32 -3 12 C-3.66 12 -4.32 12 -5 12 C-5 12.66 -5 13.32 -5 14 C-7.76452033 15.38226016 -10.0461363 15.09525387 -13.125 15.0625 C-14.22070312 15.05347656 -15.31640625 15.04445313 -16.4453125 15.03515625 C-17.70988281 15.01775391 -17.70988281 15.01775391 -19 15 C-19 14.67 -19 14.34 -19 14 C-15.37 14 -11.74 14 -8 14 C-7.67 13.01 -7.34 12.02 -7 11 C-6.01 11 -5.02 11 -4 11 C-4 10.34 -4 9.68 -4 9 C-3.34 8.67 -2.68 8.34 -2 8 C-1.62599214 5.67284 -1.29235267 3.33882138 -1 1 C-0.67 0.67 -0.34 0.34 0 0 Z " fill="#696969" transform="translate(646,735)"/>
<path d="M0 0 C1.9375 0.625 1.9375 0.625 4 2 C4.75 5.125 4.75 5.125 5 8 C2.625 8.625 2.625 8.625 0 9 C-2 7 -2 7 -2.125 4.375 C-2.08375 3.59125 -2.0425 2.8075 -2 2 C-1.34 2 -0.68 2 0 2 C0 1.34 0 0.68 0 0 Z " fill="#999999" transform="translate(628,662)"/>
<path d="M0 0 C6.27 0 12.54 0 19 0 C19 0.33 19 0.66 19 1 C13.06 1 7.12 1 1 1 C1 3.31 1 5.62 1 8 C0.34 7.34 -0.32 6.68 -1 6 C-0.67 4.02 -0.34 2.04 0 0 Z M-3 8 C-2.01 8 -1.02 8 0 8 C-0.66 9.32 -1.32 10.64 -2 12 C-2.66 11.67 -3.32 11.34 -4 11 C-3.67 10.01 -3.34 9.02 -3 8 Z " fill="#858585" transform="translate(550,631)"/>
<path d="M0 0 C0.6875 1.625 0.6875 1.625 1 4 C-0.4375 7.25 -0.4375 7.25 -2 10 C-2.66 9.34 -3.32 8.68 -4 8 C-4.99 8.99 -5.98 9.98 -7 11 C-7.66 10.67 -8.32 10.34 -9 10 C-7.625 8 -7.625 8 -6 6 C-5.34 6 -4.68 6 -4 6 C-3.8453125 5.071875 -3.8453125 5.071875 -3.6875 4.125 C-3 2 -3 2 0 0 Z " fill="#E2E2E2" transform="translate(734,468)"/>
<path d="M0 0 C2.97 0 5.94 0 9 0 C9 1.32 9 2.64 9 4 C6.03 4 3.06 4 0 4 C0 2.68 0 1.36 0 0 Z " fill="#8C8C8C" transform="translate(729,730)"/>
<path d="M0 0 C1.49739583 1.26953125 2.99479167 2.5390625 4.4921875 3.80859375 C6.00594079 5.0878152 6.00594079 5.0878152 8 6 C7.67 6.99 7.34 7.98 7 9 C5.35 8.01 3.7 7.02 2 6 C1.67 6.99 1.34 7.98 1 9 C0.34 9 -0.32 9 -1 9 C-1.125 2.25 -1.125 2.25 0 0 Z " fill="#A7A7A7" transform="translate(533,634)"/>
<path d="M0 0 C3.68802044 1.22934015 4.72356973 2.93859378 7 6 C2.375 9 2.375 9 -1 9 C-0.7215625 8.1028125 -0.7215625 8.1028125 -0.4375 7.1875 C0.22093687 4.83591238 0.22093687 4.83591238 -1 2 C-0.67 1.34 -0.34 0.68 0 0 Z " fill="#A9A9A9" transform="translate(543,633)"/>
<path d="M0 0 C0.33 0 0.66 0 1 0 C1.05379226 2.95857409 1.09357093 5.91617721 1.125 8.875 C1.14175781 9.71675781 1.15851562 10.55851563 1.17578125 11.42578125 C1.18222656 12.23144531 1.18867187 13.03710938 1.1953125 13.8671875 C1.20578613 14.61081543 1.21625977 15.35444336 1.22705078 16.12060547 C1 18 1 18 -1 20 C-3.125 19.625 -3.125 19.625 -5 19 C-4.34 17.68 -3.68 16.36 -3 15 C-2.01 15 -1.02 15 0 15 C-0.17402344 14.45859375 -0.34804688 13.9171875 -0.52734375 13.359375 C-1.09766505 10.51248191 -0.87137301 8.13281478 -0.5625 5.25 C-0.46066406 4.26515625 -0.35882812 3.2803125 -0.25390625 2.265625 C-0.12822266 1.14414062 -0.12822266 1.14414062 0 0 Z " fill="#919191" transform="translate(550,653)"/>
<path d="M0 0 C0.66 0 1.32 0 2 0 C0.67879172 2.93230193 -0.74638197 4.98664899 -3.0390625 7.234375 C-3.90917969 8.09482422 -3.90917969 8.09482422 -4.796875 8.97265625 C-5.40015625 9.55917969 -6.0034375 10.14570313 -6.625 10.75 C-7.23601562 11.35199219 -7.84703125 11.95398438 -8.4765625 12.57421875 C-9.97988624 14.05405305 -11.48934856 15.52764676 -13 17 C-13 14 -13 14 -11 11.875 C-10.55011719 11.45605469 -10.10023438 11.03710938 -9.63671875 10.60546875 C-6.82192886 7.84442187 -4.32724563 4.79082519 -1.76953125 1.79296875 C-1.18558594 1.20128906 -0.60164063 0.60960937 0 0 Z " fill="#181818" transform="translate(486,313)"/>
<path d="M0 0 C1.65 0.33 3.3 0.66 5 1 C4.67 1.66 4.34 2.32 4 3 C3.960008 4.99960012 3.95653201 7.00047242 4 9 C2.02 9.99 2.02 9.99 0 11 C0 7.33333333 0 3.66666667 0 0 Z " fill="#A9A9A9" transform="translate(593,633)"/>
<path d="M0 0 C0.99 0.66 1.98 1.32 3 2 C-0.96 4.97 -4.92 7.94 -9 11 C-9.66 10.67 -10.32 10.34 -11 10 C-9.54474941 8.51780033 -8.085701 7.03932861 -6.625 5.5625 C-5.81289063 4.73878906 -5.00078125 3.91507812 -4.1640625 3.06640625 C-2 1 -2 1 0 0 Z " fill="#D4D4D3" transform="translate(546,484)"/>
<path d="M0 0 C1.48333947 2.3558921 2.07838497 3.51662604 1.625 6.3125 C1.41875 7.199375 1.2125 8.08625 1 9 C0.96175377 11.33301986 0.95425716 13.66711508 1 16 C0.01 15.67 -0.98 15.34 -2 15 C-1.47462276 9.9697924 -0.89405214 4.98114761 0 0 Z " fill="#929292" transform="translate(645,271)"/>
<path d="M0 0 C1.31079811 3.60678206 0.68377822 5.53159537 -0.8125 9 C-1.16957031 9.845625 -1.52664063 10.69125 -1.89453125 11.5625 C-2.88072155 13.73699733 -3.91268707 15.87457383 -5 18 C-5.1799928 12.78020872 -4.97094808 8.92737019 -3 4 C-2.34 4 -1.68 4 -1 4 C-0.67 2.68 -0.34 1.36 0 0 Z " fill="#B2B2B2" transform="translate(419,365)"/>
<path d="M0 0 C2.56616632 3.84924948 2.55097676 6.4349304 3 11 C2.01 10.67 1.02 10.34 0 10 C-1.125 3.375 -1.125 3.375 0 0 Z " fill="#B6B6B6" transform="translate(417,456)"/>
<path d="M0 0 C3.60654039 2.40436026 3.85452932 3.94679607 5 8 C4.34 8 3.68 8 3 8 C2.67 8.66 2.34 9.32 2 10 C0 8 0 8 -0.1953125 6.0546875 C-0.13020833 4.03645833 -0.06510417 2.01822917 0 0 Z " fill="#949494" transform="translate(595,663)"/>
<path d="M0 0 C0.33 0.66 0.66 1.32 1 2 C1.99 2.33 2.98 2.66 4 3 C2.1875 5 2.1875 5 0 7 C-0.99 7 -1.98 7 -3 7 C-2.38722388 4.03824877 -1.74627478 2.61941217 0 0 Z " fill="#9A9A9A" transform="translate(628,423)"/>
<path d="M0 0 C1.3271261 3.9813783 1.06915913 7.85045227 1 12 C0.01 12 -0.98 12 -2 12 C-2.33 12.99 -2.66 13.98 -3 15 C-2.44854729 9.76119922 -1.57077907 5.02649303 0 0 Z " fill="#5A5A5A" transform="translate(642,284)"/>
<path d="M0 0 C0.33 0.99 0.66 1.98 1 3 C-1.64 5.64 -4.28 8.28 -7 11 C-7.66 10.67 -8.32 10.34 -9 10 C-6.03 6.7 -3.06 3.4 0 0 Z " fill="#575757" transform="translate(614,439)"/>
<path d="M0 0 C2.31 0.66 4.62 1.32 7 2 C7.33 1.34 7.66 0.68 8 0 C8.33 1.32 8.66 2.64 9 4 C6.36 4 3.72 4 1 4 C0.67 2.68 0.34 1.36 0 0 Z " fill="#6B6B6B" transform="translate(785,746)"/>
<path d="M0 0 C0.66 1.32 1.32 2.64 2 4 C0.35 6.31 -1.3 8.62 -3 11 C-3.33 10.34 -3.66 9.68 -4 9 C-3.22265625 6.8359375 -3.22265625 6.8359375 -2.0625 4.375 C-1.68222656 3.55773437 -1.30195312 2.74046875 -0.91015625 1.8984375 C-0.60980469 1.27195312 -0.30945313 0.64546875 0 0 Z " fill="#414141" transform="translate(610,380)"/>
<path d="M0 0 C0.99 0.33 1.98 0.66 3 1 C2.45773019 4.79588866 0.79872437 6.47211993 -2 9 C-1.34 6.03 -0.68 3.06 0 0 Z " fill="#5C5C5C" transform="translate(613,373)"/>
<path d="M0 0 C2.0625 2.3125 2.0625 2.3125 4 5 C3.67 5.99 3.34 6.98 3 8 C0.9375 6.25 0.9375 6.25 -1 4 C-0.75 1.75 -0.75 1.75 0 0 Z " fill="#707070" transform="translate(429,482)"/>
<path d="M0 0 C2.46800047 1.15173355 4.04783565 2.04783565 6 4 C4.741875 3.87625 3.48375 3.7525 2.1875 3.625 C1.12595703 3.52058594 1.12595703 3.52058594 0.04296875 3.4140625 C-2 3 -2 3 -5 1 C-3.35 1 -1.7 1 0 1 C0 0.67 0 0.34 0 0 Z " fill="#525252" transform="translate(524,553)"/>
<path d="M0 0 C2.29013653 3.4352048 2.17842973 4.985331 2 9 C1.34 9 0.68 9 0 9 C-1.125 3.375 -1.125 3.375 0 0 Z " fill="#CFCFCF" transform="translate(414,449)"/>
<path d="M0 0 C0.33 1.32 0.66 2.64 1 4 C1.99 3.67 2.98 3.34 4 3 C3.42655063 5.86724686 3.1385485 6.8614515 1 9 C-1.09230769 4.56923077 -1.09230769 4.56923077 -0.625 1.6875 C-0.41875 1.130625 -0.2125 0.57375 0 0 Z " fill="#606060" transform="translate(619,358)"/>
<path d="M0 0 C1.04449911 3.13349732 0.93423645 3.98968256 0 7 C-1.32 6.34 -2.64 5.68 -4 5 C-3.34 4.01 -2.68 3.02 -2 2 C-1.34 2 -0.68 2 0 2 C0 1.34 0 0.68 0 0 Z " fill="#767676" transform="translate(647,299)"/>
<path d="M0 0 C1.31223496 3.93670488 0.24296256 6.12488144 -1 10 C-3 7 -3 7 -2.75 5 C-2 3 -2 3 0 0 Z " fill="#6B6B6B" transform="translate(650,289)"/>
<path d="M0 0 C0.99 0.495 0.99 0.495 2 1 C2.4140625 3.06640625 2.4140625 3.06640625 2.625 5.5625 C2.69976563 6.38878906 2.77453125 7.21507812 2.8515625 8.06640625 C2.92503906 9.02353516 2.92503906 9.02353516 3 10 C2.34 9.67 1.68 9.34 1 9 C0.5859375 6.93359375 0.5859375 6.93359375 0.375 4.4375 C0.30023437 3.61121094 0.22546875 2.78492188 0.1484375 1.93359375 C0.09945312 1.29550781 0.05046875 0.65742187 0 0 Z " fill="#666666" transform="translate(644,720)"/>
<path d="M0 0 C0 0.66 0 1.32 0 2 C-6.93 1.505 -6.93 1.505 -14 1 C-14 0.67 -14 0.34 -14 0 C-12.04235617 -0.19456705 -10.08384679 -0.38044247 -8.125 -0.5625 C-6.48917969 -0.71912109 -6.48917969 -0.71912109 -4.8203125 -0.87890625 C-2 -1 -2 -1 0 0 Z " fill="#6A6A6A" transform="translate(383,721)"/>
<path d="M0 0 C6.57403846 -0.37211538 6.57403846 -0.37211538 8.73046875 1.51171875 C9.35888672 2.24841797 9.35888672 2.24841797 10 3 C8.5199159 2.88637738 7.04089926 2.75877092 5.5625 2.625 C4.73878906 2.55539062 3.91507813 2.48578125 3.06640625 2.4140625 C2.38449219 2.27742187 1.70257812 2.14078125 1 2 C0.67 1.34 0.34 0.68 0 0 Z " fill="#202020" transform="translate(524,556)"/>
</svg>
